<?xml version="1.0" encoding="UTF-8"?>
<!DOCTYPE svg PUBLIC "-//W3C//DTD SVG 1.1//EN" "http://www.w3.org/Graphics/SVG/1.1/DTD/svg11.dtd">
<!-- Creator: CorelDRAW X8 -->
<svg xmlns="http://www.w3.org/2000/svg" xml:space="preserve" width="209.845mm" height="135.698mm" version="1.1" style="shape-rendering:geometricPrecision; text-rendering:geometricPrecision; image-rendering:optimizeQuality; fill-rule:evenodd; clip-rule:evenodd"
viewBox="0 0 15681 10140"
 xmlns:xlink="http://www.w3.org/1999/xlink">
 <defs>
  <style type="text/css">
   <![CDATA[
    .fil1 {fill:#FEFEFE}
    .fil0 {fill:#00A0E3}
    .fil2 {fill:#6E6E6E}
    .fil3 {fill:#2B2A29;fill-rule:nonzero}
   ]]>
  </style>
 </defs>
 <g id="Capa_x0020_1">
  <metadata id="CorelCorpID_0Corel-Layer"/>
  <g id="_2160889526768">
   <path class="fil0" d="M9391 1640l4794 0c68,0 124,55 124,124l0 4793c0,68 -56,124 -124,124l-4794 0c-68,0 -124,-56 -124,-124l0 -4793c0,-69 56,-124 124,-124z"/>
   <path class="fil1" d="M13520 2810c0,201 -159,365 -358,373l0 0 -16 0 -984 0 0 2330 0 8 0 0c-4,203 -170,366 -374,366 -204,0 -370,-163 -373,-366l-1 0 0 -8 0 -2330 -977 0c-206,0 -374,-167 -374,-373 0,-206 168,-374 374,-374l2709 0 16 0 0 1c199,8 358,172 358,373z"/>
   <path class="fil2" d="M573 3340c68,-68 141,-130 216,-186 -156,-642 16,-1347 517,-1848 501,-501 1206,-673 1848,-517 56,-75 118,-148 186,-216 764,-764 2003,-764 2768,0 65,65 124,134 178,205 -282,31 -501,270 -501,560 0,13 0,26 1,39 -54,-99 -123,-192 -207,-276 -472,-472 -1238,-472 -1710,0 -200,200 -315,452 -346,712 -474,-450 -1223,-443 -1688,22 -465,465 -472,1214 -22,1688 -260,31 -512,146 -712,346 -472,472 -472,1238 0,1710 237,236 546,354 856,354l1538 0 771 0c285,328 647,587 1058,748l-3367 0c-501,0 -1002,-191 -1384,-573 -764,-765 -764,-2004 0,-2768zm6149 -672c0,206 -168,374 -374,374 -206,0 -374,-168 -374,-374l0 -1330c0,-206 168,-373 374,-373 206,0 374,167 374,373l0 1330zm732 -773c838,410 1415,1270 1415,2265 0,1392 -1129,2521 -2521,2521 -1392,0 -2521,-1129 -2521,-2521 0,-983 563,-1834 1384,-2250 58,-37 127,-58 200,-58 206,0 374,167 374,374 0,163 -105,302 -252,353l4 4c-572,294 -962,890 -962,1577 0,979 794,1773 1773,1773 979,0 1773,-794 1773,-1773 0,-687 -390,-1283 -962,-1577l3 -3c-149,-49 -256,-189 -256,-354 0,-207 168,-374 374,-374 63,0 122,16 174,43l0 0zm7853 -255c206,0 374,167 374,373l0 4294c0,206 -168,374 -374,374 -206,0 -374,-168 -374,-374l0 -4294c0,-206 168,-373 374,-373z"/>
  </g>
  <path class="fil3" d="M905 7780c135,0 229,34 283,102 53,69 80,191 80,368 0,177 -27,300 -80,368 -54,69 -148,103 -283,103 -134,0 -228,-34 -281,-103 -54,-68 -80,-191 -80,-368 0,-177 26,-299 80,-368 53,-68 147,-102 281,-102zm176 193c-32,-51 -91,-76 -176,-76 -85,0 -143,25 -175,76 -32,51 -48,143 -48,277 0,134 16,227 48,278 32,51 90,76 175,76 85,0 144,-25 176,-76 33,-51 49,-144 49,-278 0,-134 -16,-226 -49,-277zm925 -66l-337 0c-31,0 -52,7 -65,19 -13,13 -19,35 -19,65l0 196 371 0 0 107 -371 0 0 410 -132 0 0 -740c0,-54 17,-95 50,-125 33,-30 77,-45 133,-45 174,0 299,4 376,12l-6 101zm292 797l-132 0 0 -907 132 0 0 907zm803 -116l13 100c-73,21 -163,32 -270,32 -132,0 -225,-35 -278,-106 -54,-70 -80,-191 -80,-364 0,-172 26,-294 80,-364 53,-70 146,-105 278,-105 95,0 179,9 252,26l-14 101c-70,-7 -149,-10 -238,-10 -83,0 -140,25 -172,76 -32,51 -48,143 -48,276 0,134 16,226 48,276 32,51 89,77 172,77 112,0 197,-5 257,-15zm301 116l-132 0 0 -907 132 0 0 907zm931 -907l0 856c0,34 -16,51 -49,51l-125 0c-26,0 -45,-14 -56,-41l-283 -618c-32,-68 -50,-110 -54,-126l-18 0c4,35 6,77 6,126l0 659 -131 0 0 -856c0,-34 16,-51 50,-51l121 0c25,0 44,13 58,40l274 603c4,8 10,20 19,38 9,18 17,35 24,52 8,16 14,31 20,45l20 0c-4,-53 -6,-99 -6,-141l0 -637 130 0zm702 633l-362 0 -84 274 -134 0 284 -872c7,-23 23,-35 49,-35l134 0c26,0 42,12 47,35l285 872 -135 0 -84 -274zm-34 -114l-107 -344c-2,-8 -6,-21 -11,-37 -5,-17 -9,-29 -11,-37l-36 0 -21 74 -106 344 292 0zm637 388l0 -907c115,-8 224,-12 328,-12 133,0 226,34 279,101 53,68 80,189 80,364 0,176 -27,297 -80,364 -53,68 -146,102 -279,102 -104,0 -213,-4 -328,-12zm132 -803l0 696c56,3 121,4 196,4 82,0 139,-25 171,-76 32,-51 48,-142 48,-275 0,-132 -16,-224 -48,-274 -32,-51 -89,-77 -171,-77 -27,0 -61,0 -105,1 -43,0 -74,1 -91,1zm1300 694l7 101c-80,7 -210,11 -389,11 -57,0 -101,-15 -133,-45 -33,-29 -49,-69 -50,-118l0 -587c1,-50 17,-90 50,-119 32,-29 76,-44 133,-44 179,0 309,4 389,11l-7 102 -360 0c-26,0 -45,7 -56,19 -11,13 -16,35 -16,65l0 182 382 0 0 106 -382 0 0 232c0,30 5,52 16,65 11,12 30,19 56,19l360 0zm1070 -681l-288 0 0 790 -132 0 0 -790 -286 0 0 -117 706 0 0 117zm698 681l7 101c-80,7 -209,11 -389,11 -56,0 -100,-15 -133,-45 -32,-29 -49,-69 -50,-118l0 -587c1,-50 18,-90 50,-119 33,-29 77,-44 133,-44 180,0 309,4 389,11l-7 102 -360 0c-26,0 -45,7 -56,19 -11,13 -16,35 -16,65l0 182 383 0 0 106 -383 0 0 232c0,30 5,52 16,65 11,12 30,19 56,19l360 0zm756 -7l14 100c-73,21 -163,32 -270,32 -132,0 -225,-35 -279,-106 -53,-70 -80,-191 -80,-364 0,-172 27,-294 80,-364 54,-70 147,-105 279,-105 95,0 178,9 251,26l-13 101c-70,-7 -149,-10 -238,-10 -83,0 -141,25 -173,76 -32,51 -48,143 -48,276 0,134 16,226 48,276 32,51 90,77 173,77 111,0 197,-5 256,-15zm880 -791l0 856c0,34 -16,51 -49,51l-125 0c-26,0 -45,-14 -56,-41l-283 -618c-31,-68 -49,-110 -54,-126l-18 0c4,35 7,77 7,126l0 659 -132 0 0 -856c0,-34 17,-51 50,-51l121 0c25,0 45,13 58,40l275 603c3,8 9,20 18,38 9,18 17,35 24,52 8,16 15,31 21,45l19 0c-4,-53 -6,-99 -6,-141l0 -637 130 0zm550 -17c135,0 229,34 282,102 54,69 80,191 80,368 0,177 -26,300 -80,368 -53,69 -147,103 -282,103 -134,0 -228,-34 -282,-103 -53,-68 -80,-191 -80,-368 0,-177 27,-299 80,-368 54,-68 148,-102 282,-102zm176 193c-33,-51 -91,-76 -176,-76 -85,0 -144,25 -176,76 -32,51 -48,143 -48,277 0,134 16,227 48,278 32,51 91,76 176,76 85,0 143,-25 176,-76 32,-51 48,-144 48,-278 0,-134 -16,-226 -48,-277zm503 -176l0 712c0,31 6,53 19,65 12,13 34,19 64,19l322 0 7 102c-85,8 -202,12 -350,12 -129,0 -193,-60 -193,-179l0 -731 131 0zm859 -17c135,0 229,34 283,102 53,69 80,191 80,368 0,177 -27,300 -80,368 -54,69 -148,103 -283,103 -134,0 -228,-34 -281,-103 -54,-68 -81,-191 -81,-368 0,-177 27,-299 81,-368 53,-68 147,-102 281,-102zm176 193c-32,-51 -91,-76 -176,-76 -85,0 -144,25 -176,76 -32,51 -48,143 -48,277 0,134 16,227 48,278 32,51 91,76 176,76 85,0 144,-25 176,-76 32,-51 49,-144 49,-278 0,-134 -17,-226 -49,-277zm1006 208l0 523 -97 0 -14 -92c-76,73 -166,109 -269,109 -100,0 -172,-38 -217,-114 -45,-77 -67,-197 -67,-361 0,-121 13,-216 38,-283 25,-67 65,-114 120,-142 54,-28 130,-41 228,-41 95,0 179,9 253,27l-13 100c-74,-7 -151,-10 -232,-10 -41,0 -74,2 -100,7 -25,5 -49,14 -71,28 -21,14 -38,35 -49,62 -11,27 -19,62 -26,104 -6,42 -9,94 -9,158 0,130 14,221 40,273 27,52 74,78 142,78 64,0 135,-27 214,-81l0 -345 129 0zm476 -585l-262 153 -43 -59 233 -192 72 98zm-149 1108l-131 0 0 -907 131 0 0 907zm702 -274l-361 0 -84 274 -134 0 284 -872c7,-23 23,-35 48,-35l134 0c27,0 42,12 48,35l285 872 -136 0 -84 -274zm-34 -114l-106 -344c-3,-8 -7,-21 -12,-37 -4,-17 -8,-29 -11,-37l-35 0 -21 74 -107 344 292 0zm700 13l-184 -51c-65,-18 -112,-47 -139,-89 -28,-41 -42,-98 -42,-169 0,-51 6,-93 17,-125 11,-32 30,-57 57,-73 27,-17 57,-28 91,-33 33,-5 78,-8 134,-8 107,0 198,9 273,28l-8 96c-127,-5 -213,-7 -260,-7 -68,0 -114,7 -137,20 -22,14 -34,49 -34,106 0,45 8,76 25,95 16,18 44,33 84,43l180 50c68,19 115,48 143,90 28,41 42,97 42,168 0,100 -23,166 -69,200 -45,33 -126,50 -240,50 -97,0 -192,-9 -286,-27l9 -97c137,4 230,7 279,7 69,-1 114,-10 138,-27 23,-16 34,-52 34,-107 0,-47 -7,-79 -23,-97 -16,-18 -44,-32 -84,-43zm-13341 1794l0 -907c115,-8 224,-12 328,-12 133,0 226,34 279,101 53,68 80,189 80,364 0,176 -27,297 -80,364 -53,68 -146,102 -279,102 -104,0 -213,-4 -328,-12zm132 -803l0 696c56,3 121,4 196,4 82,0 139,-25 171,-76 32,-51 48,-142 48,-275 0,-132 -16,-224 -48,-275 -32,-50 -89,-76 -171,-76 -27,0 -61,0 -105,1 -43,0 -74,1 -91,1zm1300 694l7 101c-80,7 -210,11 -389,11 -57,0 -101,-15 -133,-45 -33,-29 -49,-69 -50,-119l0 -586c1,-50 17,-90 50,-119 32,-29 76,-44 133,-44 179,0 309,4 389,11l-7 102 -360 0c-26,0 -45,6 -56,19 -11,13 -16,35 -16,65l0 182 382 0 0 106 -382 0 0 232c0,30 5,52 16,65 11,12 30,19 56,19l360 0zm602 -798l0 712c0,31 6,53 19,65 12,13 33,19 64,19l322 0 7 102c-85,8 -202,12 -350,12 -129,0 -193,-60 -193,-179l0 -731 131 0zm1030 633l-362 0 -84 274 -134 0 284 -872c7,-23 23,-35 49,-35l134 0c26,0 42,12 47,35l285 872 -135 0 -84 -274zm-34 -114l-107 -344c-3,-8 -6,-21 -11,-37 -5,-17 -9,-29 -11,-37l-36 0 -21 74 -106 344 292 0zm769 388l-132 0 0 -907 132 0 0 907zm931 -907l0 856c0,34 -17,51 -49,51l-125 0c-26,0 -45,-14 -57,-41l-282 -618c-32,-68 -50,-110 -54,-126l-19 0c5,35 7,77 7,126l0 659 -131 0 0 -856c0,-34 16,-51 50,-51l120 0c26,0 45,13 58,40l275 603c4,7 10,20 19,38 8,18 16,35 24,52 7,16 14,31 20,45l20 0c-4,-53 -7,-99 -7,-141l0 -637 131 0zm770 110l-337 0c-30,0 -52,6 -65,19 -12,13 -19,35 -19,65l0 196 371 0 0 107 -371 0 0 410 -131 0 0 -740c0,-54 16,-95 49,-125 33,-30 77,-45 134,-45 173,0 298,4 376,12l-7 101zm480 -127c135,0 229,34 283,102 53,69 80,191 80,368 0,177 -27,300 -80,368 -54,69 -148,103 -283,103 -134,0 -228,-34 -281,-103 -54,-68 -81,-191 -81,-368 0,-177 27,-299 81,-368 53,-68 147,-102 281,-102zm176 193c-32,-51 -91,-76 -176,-76 -85,0 -144,25 -176,76 -32,51 -48,143 -48,277 0,134 16,227 48,278 32,51 91,76 176,76 85,0 144,-25 176,-76 32,-51 49,-144 49,-278 0,-134 -17,-226 -49,-277zm1024 731l-140 0 -78 -283c-19,-60 -57,-91 -114,-91l-187 -1 0 375 -130 0 0 -907c74,-8 180,-12 317,-12 109,0 187,19 232,56 45,38 67,107 67,207 0,73 -13,127 -38,164 -26,37 -69,59 -129,67l0 7c59,17 97,61 115,131l85 287zm-519 -487l184 0c65,0 109,-12 133,-34 25,-23 37,-65 37,-127 0,-62 -12,-103 -37,-125 -24,-22 -68,-33 -133,-33 -89,0 -151,0 -184,1l0 318zm1407 -420l143 0c34,0 52,18 54,54l37 853 -132 0 -31 -798 -27 0 -184 645c-8,30 -26,45 -56,45l-115 0c-30,0 -50,-15 -57,-45l-186 -645 -25 0 -30 798 -130 0 34 -853c2,-36 20,-54 54,-54l146 0c27,0 45,15 55,44l154 532c9,31 19,72 30,122l24 0c10,-47 21,-88 31,-124l153 -530c10,-29 29,-44 58,-44zm917 633l-361 0 -84 274 -134 0 284 -872c7,-23 23,-35 48,-35l134 0c27,0 42,12 48,35l285 872 -135 0 -85 -274zm-34 -114l-106 -344c-3,-8 -7,-21 -11,-37 -5,-17 -9,-29 -12,-37l-35 0 -21 74 -107 344 292 0zm952 272l13 100c-72,21 -162,32 -269,32 -133,0 -226,-35 -279,-106 -53,-70 -80,-191 -80,-364 0,-172 27,-294 80,-364 53,-70 146,-105 279,-105 94,0 178,9 251,26l-13 101c-70,-7 -150,-10 -238,-10 -84,0 -141,25 -173,76 -32,51 -48,143 -48,276 0,134 16,226 48,276 32,51 89,77 173,77 111,0 197,-5 256,-15zm301 116l-131 0 0 -907 131 0 0 907zm763 -1108l-262 153 -42 -59 233 -192 71 98zm-213 184c135,0 229,34 282,102 54,69 81,191 81,368 0,177 -27,300 -81,368 -53,69 -147,103 -282,103 -134,0 -228,-34 -282,-103 -53,-68 -80,-191 -80,-368 0,-177 27,-299 80,-368 54,-68 148,-102 282,-102zm176 193c-32,-51 -91,-76 -176,-76 -85,0 -144,25 -176,76 -32,51 -48,143 -48,277 0,134 16,227 48,278 32,51 91,76 176,76 85,0 144,-25 176,-76 32,-51 49,-144 49,-278 0,-134 -17,-226 -49,-277zm1085 -176l0 856c0,34 -17,51 -49,51l-125 0c-26,0 -45,-14 -56,-41l-283 -618c-32,-68 -50,-110 -54,-126l-18 0c4,35 6,77 6,126l0 659 -131 0 0 -856c0,-34 16,-51 50,-51l121 0c25,0 44,13 57,40l275 603c4,7 10,20 19,38 8,18 17,35 24,52 7,16 14,31 20,45l20 0c-4,-53 -7,-99 -7,-141l0 -637 131 0z"/>
 </g>
</svg>
