<?xml version="1.0" encoding="UTF-8"?>
<!DOCTYPE svg PUBLIC "-//W3C//DTD SVG 1.1//EN" "http://www.w3.org/Graphics/SVG/1.1/DTD/svg11.dtd">
<!-- Creator: CorelDRAW X8 -->
<svg xmlns="http://www.w3.org/2000/svg" xml:space="preserve" width="415.684mm" height="89.4043mm" version="1.1" style="shape-rendering:geometricPrecision; text-rendering:geometricPrecision; image-rendering:optimizeQuality; fill-rule:evenodd; clip-rule:evenodd"
viewBox="0 0 23607 5077"
 xmlns:xlink="http://www.w3.org/1999/xlink">
 <defs>
  <style type="text/css">
   <![CDATA[
    .fil1 {fill:#FEFEFE}
    .fil0 {fill:#00A0E3}
    .fil2 {fill:#FEFEFE;fill-rule:nonzero}
   ]]>
  </style>
 </defs>
 <g id="Capa_x0020_1">
  <metadata id="CorelCorpID_0Corel-Layer"/>
  <g id="_2160889538576">
   <path class="fil0" d="M7138 1246l3642 0c52,0 95,42 95,94l0 3643c0,52 -43,94 -95,94l-3642 0c-52,0 -95,-42 -95,-94l0 -3643c0,-52 43,-94 95,-94z"/>
   <path class="fil1" d="M10275 2136c0,152 -120,277 -272,283l0 0 -12 0 -748 0 0 1771 0 6 0 0c-3,154 -129,278 -284,278 -155,0 -281,-124 -284,-278l0 0 0 -6 0 -1771 -743 0c-157,0 -284,-127 -284,-283 0,-157 127,-284 284,-284l2059 0 12 0 0 0c152,6 272,131 272,284z"/>
   <path class="fil1" d="M436 2539c51,-52 106,-99 163,-142 -118,-488 13,-1023 394,-1404 381,-381 916,-512 1404,-394 43,-57 90,-112 142,-163 580,-581 1522,-581 2103,0 49,49 94,101 135,155 -214,24 -381,205 -381,426 0,10 1,20 1,30 -41,-75 -93,-146 -157,-210 -359,-359 -941,-359 -1300,0 -151,152 -239,343 -262,541 -361,-342 -930,-337 -1284,16 -353,354 -358,923 -16,1284 -198,23 -389,111 -541,262 -359,359 -359,941 0,1300 180,180 415,269 650,269l1169 0 586 0c217,249 492,446 804,568l-2558 0c-381,0 -762,-145 -1052,-435 -581,-581 -581,-1523 0,-2103zm4673 -511c0,157 -128,284 -284,284 -157,0 -284,-127 -284,-284l0 -1011c0,-157 127,-284 284,-284 156,0 284,127 284,284l0 1011zm556 -588c637,311 1075,965 1075,1722 0,1058 -857,1915 -1915,1915 -1058,0 -1916,-857 -1916,-1915 0,-747 428,-1394 1052,-1710 44,-28 96,-44 151,-44 157,0 284,127 284,284 0,124 -80,230 -191,268l3 3c-434,224 -731,677 -731,1199 0,744 603,1347 1348,1347 744,0 1347,-603 1347,-1347 0,-522 -297,-975 -731,-1199l2 -2c-113,-38 -194,-144 -194,-269 0,-157 127,-284 284,-284 48,0 93,12 132,32l0 0zm5968 -194c157,0 284,127 284,284l0 3263c0,157 -127,284 -284,284 -156,0 -284,-127 -284,-284l0 -3263c0,-157 128,-284 284,-284z"/>
  </g>
  <path class="fil2" d="M13159 1494c121,0 205,31 253,92 48,61 71,171 71,329 0,158 -23,268 -71,329 -48,61 -132,92 -253,92 -120,0 -204,-31 -252,-92 -47,-61 -71,-171 -71,-329 0,-158 24,-268 71,-329 48,-61 132,-92 252,-92zm158 173c-29,-45 -82,-68 -158,-68 -76,0 -128,23 -157,68 -29,46 -43,128 -43,248 0,120 14,203 43,248 29,46 81,68 157,68 76,0 129,-22 158,-68 29,-45 43,-128 43,-248 0,-120 -14,-202 -43,-248zm826 -59l-301 0c-27,0 -47,6 -58,17 -12,12 -17,31 -17,59l0 175 331 0 0 95 -331 0 0 367 -118 0 0 -662c0,-48 15,-85 44,-112 30,-26 69,-40 120,-40 155,0 267,4 336,11l-6 90zm261 713l-118 0 0 -811 118 0 0 811zm718 -104l12 90c-65,18 -145,28 -241,28 -118,0 -201,-32 -249,-94 -48,-63 -72,-172 -72,-326 0,-154 24,-263 72,-326 48,-62 131,-94 249,-94 85,0 159,8 224,24l-11 90c-63,-6 -134,-9 -213,-9 -75,0 -126,23 -155,68 -28,46 -43,128 -43,247 0,119 15,201 43,247 29,45 80,68 155,68 99,0 176,-4 229,-13zm269 104l-117 0 0 -811 117 0 0 811zm833 -811l0 765c0,30 -15,46 -44,46l-112 0c-23,0 -40,-12 -50,-37l-253 -552c-28,-61 -44,-99 -48,-113l-16 0c3,31 5,69 5,113l0 589 -117 0 0 -766c0,-30 15,-45 45,-45l108 0c22,0 40,12 51,36l246 538c3,7 9,19 17,35 7,16 15,31 21,46 7,14 13,28 19,40l17 0c-4,-47 -6,-89 -6,-125l0 -570 117 0zm627 566l-323 0 -75 245 -120 0 254 -780c6,-21 21,-31 43,-31l120 0c24,0 38,10 43,31l255 780 -121 0 -76 -245zm-30 -102l-95 -308c-3,-7 -6,-18 -10,-33 -5,-15 -8,-26 -10,-33l-32 0 -19 66 -95 308 261 0zm570 347l0 -811c103,-8 200,-11 293,-11 119,0 202,30 249,90 48,61 72,169 72,326 0,157 -24,265 -72,326 -47,60 -130,90 -249,90 -93,0 -190,-3 -293,-10zm118 -719l0 623c50,3 108,4 175,4 73,0 124,-23 153,-68 29,-46 43,-128 43,-246 0,-118 -14,-200 -43,-246 -29,-45 -80,-68 -153,-68 -24,0 -55,0 -94,1 -39,0 -66,0 -81,0zm1162 621l6 91c-71,6 -187,9 -348,9 -50,0 -90,-13 -119,-39 -29,-27 -44,-62 -44,-107l0 -524c0,-45 15,-80 44,-106 29,-27 69,-40 119,-40 161,0 277,3 348,10l-6 91 -322 0c-23,0 -40,6 -50,17 -10,12 -15,31 -15,59l0 162 342 0 0 95 -342 0 0 207c0,27 5,47 15,58 10,11 27,17 50,17l322 0zm-5245 660l-258 0 0 706 -118 0 0 -706 -255 0 0 -105 631 0 0 105zm624 609l6 90c-71,7 -187,10 -348,10 -50,0 -90,-13 -119,-40 -29,-26 -44,-61 -44,-106l0 -524c0,-45 15,-80 44,-107 29,-26 69,-39 119,-39 161,0 277,3 348,9l-6 92 -322 0c-24,0 -40,6 -50,17 -10,11 -15,31 -15,58l0 162 342 0 0 96 -342 0 0 207c0,27 5,46 15,58 10,11 26,17 50,17l322 0zm676 -6l12 89c-65,19 -146,28 -241,28 -119,0 -202,-31 -249,-94 -48,-62 -72,-171 -72,-325 0,-155 24,-263 72,-326 47,-63 130,-94 249,-94 84,0 159,8 224,24l-11 90c-63,-6 -134,-9 -213,-9 -75,0 -126,22 -155,68 -28,45 -43,128 -43,247 0,119 15,201 43,247 29,45 80,68 155,68 99,0 176,-4 229,-13zm786 -708l0 766c0,30 -14,45 -43,45l-112 0c-23,0 -40,-12 -50,-36l-253 -553c-28,-61 -44,-98 -48,-112l-17 0c4,31 6,69 6,112l0 589 -117 0 0 -765c0,-30 15,-46 44,-46l108 0c23,0 40,12 52,37l246 538c3,7 9,19 16,35 8,16 15,31 22,46 7,14 13,28 18,40l18 0c-4,-47 -6,-89 -6,-126l0 -570 116 0zm492 -15c121,0 205,31 253,92 47,61 71,170 71,329 0,158 -24,268 -71,329 -48,61 -132,92 -253,92 -120,0 -204,-31 -252,-92 -48,-61 -71,-171 -71,-329 0,-159 23,-268 71,-329 48,-61 132,-92 252,-92zm157 173c-29,-46 -81,-68 -157,-68 -76,0 -129,22 -157,68 -29,45 -43,128 -43,248 0,120 14,202 43,248 28,45 81,68 157,68 76,0 128,-23 157,-68 29,-46 44,-128 44,-248 0,-120 -15,-203 -44,-248zm451 -158l0 637c0,28 5,47 16,59 11,11 30,17 58,17l288 0 6 90c-77,7 -181,11 -313,11 -115,0 -173,-54 -173,-160l0 -654 118 0zm767 -15c121,0 205,31 253,92 48,61 72,170 72,329 0,158 -24,268 -72,329 -48,61 -132,92 -253,92 -120,0 -204,-31 -251,-92 -48,-61 -72,-171 -72,-329 0,-159 24,-268 72,-329 47,-61 131,-92 251,-92zm158 173c-29,-46 -82,-68 -158,-68 -76,0 -128,22 -157,68 -28,45 -43,128 -43,248 0,120 15,202 43,248 29,45 81,68 157,68 76,0 129,-23 158,-68 29,-46 43,-128 43,-248 0,-120 -14,-203 -43,-248zm899 185l0 468 -87 0 -12 -82c-68,65 -148,98 -241,98 -89,0 -154,-34 -194,-103 -40,-68 -60,-175 -60,-322 0,-109 12,-193 34,-253 23,-60 59,-102 107,-127 49,-25 117,-37 205,-37 85,0 160,8 226,25l-12 89c-66,-6 -135,-9 -207,-9 -37,0 -67,2 -89,6 -23,4 -44,13 -64,25 -19,13 -34,31 -44,56 -10,24 -17,55 -23,92 -5,38 -8,85 -8,141 0,117 12,199 36,245 24,46 66,69 126,69 57,0 121,-24 192,-71l0 -310 115 0zm426 -523l-234 138 -39 -53 208 -172 65 87zm-133 991l-118 0 0 -811 118 0 0 811zm627 -244l-323 0 -75 244 -120 0 254 -779c6,-21 21,-32 43,-32l120 0c24,0 38,11 43,32l255 779 -121 0 -76 -244zm-30 -102l-95 -308c-3,-7 -6,-18 -10,-33 -5,-15 -8,-26 -10,-33l-32 0 -19 66 -95 308 261 0zm625 11l-164 -46c-58,-15 -100,-42 -124,-79 -25,-37 -37,-87 -37,-151 0,-46 5,-84 14,-112 10,-29 27,-51 51,-65 25,-15 52,-25 82,-30 29,-5 69,-7 119,-7 96,0 178,8 245,25l-7 86c-114,-4 -191,-6 -233,-6 -61,0 -102,6 -122,18 -20,12 -31,44 -31,95 0,40 8,68 22,84 15,17 40,30 76,39l161 45c60,16 103,43 128,80 24,36 37,87 37,150 0,89 -21,149 -62,179 -40,30 -112,44 -215,44 -86,0 -171,-7 -255,-23l8 -87c123,4 206,6 250,6 61,-1 102,-9 123,-24 20,-15 31,-47 31,-96 0,-42 -7,-70 -21,-86 -15,-17 -40,-29 -76,-39zm-7086 1604l0 -811c103,-7 200,-11 293,-11 119,0 202,31 250,91 47,60 71,169 71,326 0,156 -24,265 -71,325 -48,60 -131,91 -250,91 -93,0 -190,-4 -293,-11zm118 -718l0 623c50,2 108,3 175,3 74,0 125,-22 153,-68 29,-45 43,-127 43,-245 0,-119 -14,-201 -43,-246 -28,-46 -79,-68 -153,-68 -24,0 -55,0 -94,0 -38,1 -66,1 -81,1zm1162 621l6 90c-71,6 -187,9 -348,9 -50,0 -90,-13 -119,-39 -29,-26 -43,-62 -44,-106l0 -525c1,-44 15,-80 44,-106 29,-26 69,-39 119,-39 161,0 277,3 348,9l-6 92 -322 0c-23,0 -40,5 -50,17 -10,11 -14,31 -14,58l0 162 342 0 0 95 -342 0 0 207c0,28 4,47 14,58 10,12 27,18 50,18l322 0zm539 -714l0 637c0,28 5,47 16,58 11,12 30,17 58,17l288 0 6 91c-76,7 -181,10 -313,10 -115,0 -173,-53 -173,-159l0 -654 118 0zm920 567l-323 0 -75 244 -120 0 254 -779c6,-21 20,-32 43,-32l120 0c24,0 38,11 42,32l255 779 -121 0 -75 -244zm-30 -103l-96 -308c-2,-7 -5,-18 -10,-33 -4,-15 -7,-25 -10,-33l-31 0 -19 66 -95 308 261 0zm687 347l-117 0 0 -811 117 0 0 811zm833 -811l0 765c0,31 -15,46 -44,46l-112 0c-23,0 -40,-12 -50,-36l-253 -553c-28,-61 -44,-99 -48,-113l-17 0c4,32 6,69 6,113l0 589 -117 0 0 -765c0,-31 15,-46 44,-46l109 0c22,0 40,12 51,36l246 539c3,7 9,18 16,34 8,17 16,32 22,46 7,15 13,28 18,41l18 0c-4,-47 -6,-89 -6,-126l0 -570 117 0zm688 99l-301 0c-27,0 -46,5 -58,17 -11,11 -17,31 -17,58l0 175 332 0 0 95 -332 0 0 367 -117 0 0 -662c0,-48 14,-85 44,-111 29,-27 69,-40 119,-40 155,0 267,3 336,10l-6 91zm429 -114c121,0 205,30 253,91 48,61 72,171 72,330 0,158 -24,268 -72,329 -48,61 -132,91 -253,91 -119,0 -203,-30 -251,-91 -48,-61 -72,-171 -72,-329 0,-159 24,-269 72,-330 48,-61 132,-91 251,-91zm158 172c-29,-45 -82,-68 -158,-68 -76,0 -128,23 -156,68 -29,46 -43,129 -43,249 0,119 14,202 43,248 28,45 80,68 156,68 76,0 129,-23 158,-68 29,-46 43,-129 43,-248 0,-120 -14,-203 -43,-249zm916 654l-126 0 -69 -253c-18,-54 -52,-81 -103,-81l-167 -1 0 335 -116 0 0 -811c67,-7 161,-11 283,-11 98,0 167,17 208,51 40,34 60,95 60,184 0,66 -11,115 -34,147 -23,33 -62,53 -115,60l0 6c53,16 87,55 102,118l77 256zm-465 -435l165 0c58,-1 98,-11 119,-31 22,-20 33,-58 33,-113 0,-55 -11,-93 -33,-112 -21,-20 -61,-30 -119,-30 -80,0 -135,1 -165,2l0 284zm1258 -376l128 0c31,0 47,16 49,48l32 763 -117 0 -28 -713 -24 0 -164 577c-7,26 -24,40 -51,40l-102 0c-28,0 -45,-14 -52,-40l-166 -577 -22 0 -27 713 -116 0 30 -763c2,-32 18,-48 48,-48l131 0c24,0 41,13 49,40l138 475c8,28 17,64 27,109l21 0c9,-41 19,-78 28,-110l137 -474c8,-27 25,-40 51,-40zm821 567l-324 0 -75 244 -120 0 254 -779c7,-21 21,-32 44,-32l120 0c23,0 37,11 42,32l255 779 -121 0 -75 -244zm-31 -103l-95 -308c-2,-7 -6,-18 -10,-33 -4,-15 -8,-25 -10,-33l-32 0 -19 66 -95 308 261 0zm851 244l12 89c-65,19 -145,28 -241,28 -118,0 -201,-31 -249,-94 -48,-63 -72,-171 -72,-325 0,-155 24,-263 72,-326 48,-63 131,-94 249,-94 85,0 160,8 225,23l-12 91c-63,-6 -134,-10 -213,-10 -74,0 -126,23 -155,69 -28,45 -42,127 -42,247 0,119 14,201 42,246 29,46 81,69 155,69 100,0 176,-5 229,-13zm269 103l-117 0 0 -811 117 0 0 811zm682 -991l-234 138 -37 -53 208 -172 63 87zm-190 165c121,0 205,30 253,91 47,61 71,171 71,330 0,158 -24,268 -71,329 -48,61 -132,91 -253,91 -120,0 -204,-30 -252,-91 -48,-61 -71,-171 -71,-329 0,-159 23,-269 71,-330 48,-61 132,-91 252,-91zm157 172c-29,-45 -81,-68 -157,-68 -76,0 -128,23 -157,68 -29,46 -43,129 -43,249 0,119 14,202 43,248 29,45 81,68 157,68 76,0 128,-23 157,-68 29,-46 44,-129 44,-248 0,-120 -15,-203 -44,-249zm970 -157l0 765c0,31 -14,46 -43,46l-112 0c-23,0 -40,-12 -51,-36l-252 -553c-28,-61 -45,-99 -48,-113l-17 0c4,32 6,69 6,113l0 589 -118 0 0 -765c0,-31 15,-46 45,-46l108 0c23,0 40,12 52,36l246 539c3,7 8,18 16,34 8,17 15,32 22,46 7,15 13,28 18,41l18 0c-4,-47 -6,-89 -6,-126l0 -570 116 0z"/>
 </g>
</svg>
