<svg xmlns="http://www.w3.org/2000/svg" viewBox="0 0 379.81 185.5"><defs><style>.cls-1,.cls-3{fill:#ae122a;}.cls-2{fill:none;stroke:#f8d8cd;stroke-linecap:round;stroke-linejoin:round;stroke-width:4px;}.cls-3{font-size:68.67px;font-family:EncodeSansSemiExpanded-Black, Encode Sans Semi Expanded Black;}.cls-4{letter-spacing:-0.02em;}</style></defs><title>logo-comedor3</title><g id="Capa_2" data-name="Capa 2"><g id="Capa_1-2" data-name="Capa 1"><circle class="cls-1" cx="92.75" cy="92.75" r="92.75"/><path class="cls-2" d="M100.46,163.86A72.53,72.53,0,0,1,84,163.74"/><path class="cls-2" d="M147.44,46.67a71.52,71.52,0,0,1-4.5,97"/><path class="cls-2" d="M66.44,26.23A71.92,71.92,0,0,1,108.8,23"/><path class="cls-2" d="M42.92,144.05a71.53,71.53,0,0,1-8.1-93.25"/><text class="cls-3" transform="translate(201.79 86.89)">SIS</text><text class="cls-3" transform="translate(201.79 144.18)"><tspan class="cls-4">C</tspan><tspan x="46.38" y="0">OM</tspan></text><path class="cls-2" d="M82.71,37.5l.5,31.77a6.28,6.28,0,0,1-1.66,4.25l-7.46,8.2a5.18,5.18,0,0,0-1.36,3.7l1.43,66.8s-.5,7.77-8.05,7.77-8.05-7.77-8.05-7.77l1.43-66.8a5.18,5.18,0,0,0-1.36-3.7l-7.46-8.2A6.28,6.28,0,0,1,49,69.27l.5-31.77m11.07,0v32.2M71.64,37.5v32.2"/><path class="cls-2" d="M128.3,85.62c5.77-3.32,9.7-10.25,9.7-19.93,0-13.9-8.11-28.18-18.11-28.18s-18.11,14.28-18.11,28.18c0,9.68,3.93,16.62,9.7,19.93a4.38,4.38,0,0,1,2.23,3.92l-1.87,62.19s.5,7.77,8.05,7.77,8.05-7.77,8.05-7.77l-1.87-62.19A4.38,4.38,0,0,1,128.3,85.62Z"/></g></g></svg>