<svg xmlns="http://www.w3.org/2000/svg" viewBox="0 0 281 185.5"><defs><style>.cls-1{fill:#ae122a;}.cls-2,.cls-3{fill:none;stroke-width:4px;}.cls-2{stroke:#ae122a;stroke-miterlimit:10;}.cls-3{stroke:#f8d8cd;stroke-linecap:round;stroke-linejoin:round;}.cls-4{font-size:40.75px;fill:#f8d8cd;font-family:EncodeSansSemiExpanded-Black, Encode Sans Semi Expanded Black;}.cls-5{letter-spacing:-0.02em;}</style></defs><title>logo-comedor2</title><g id="Capa_2" data-name="Capa 2"><g id="Capa_1-2" data-name="Capa 1"><circle class="cls-1" cx="138.75" cy="92.75" r="92.75"/><path class="cls-2" d="M35.71,31.5l.5,31.77a6.28,6.28,0,0,1-1.66,4.25l-7.46,8.2a5.18,5.18,0,0,0-1.36,3.7l1.43,66.8s-.5,7.77-8.05,7.77-8.05-7.77-8.05-7.77l1.43-66.8a5.18,5.18,0,0,0-1.36-3.7l-7.46-8.2A6.28,6.28,0,0,1,2,63.27L2.5,31.5m11.07,0v32.2M24.64,31.5v32.2"/><path class="cls-2" d="M269.3,79.87c5.77-3.32,9.7-10.25,9.7-19.93,0-13.9-8.11-28.18-18.11-28.18S242.77,46,242.77,59.93c0,9.68,3.93,16.62,9.7,19.93a4.38,4.38,0,0,1,2.23,3.92L252.84,146s.5,7.77,8.05,7.77,8.05-7.77,8.05-7.77l-1.87-62.19A4.38,4.38,0,0,1,269.3,79.87Z"/><path class="cls-3" d="M146.46,163.86a72.53,72.53,0,0,1-16.45-.12"/><path class="cls-3" d="M193.44,46.67a71.52,71.52,0,0,1-4.5,97"/><path class="cls-3" d="M112.44,26.23A71.92,71.92,0,0,1,154.8,23"/><path class="cls-3" d="M88.92,144.05a71.53,71.53,0,0,1-8.1-93.25"/><text class="cls-4" transform="translate(107.14 85.61)">SIS</text><text class="cls-4" transform="translate(87.79 119.61)"><tspan class="cls-5">C</tspan><tspan x="27.53" y="0">OM</tspan></text></g></g></svg>