<svg xmlns="http://www.w3.org/2000/svg" xmlns:xlink="http://www.w3.org/1999/xlink" viewBox="0 0 448.42 184.48"><defs><style>.cls-1,.cls-9{fill:none;}.cls-2{fill:#f8d8cd;}.cls-3,.cls-4,.cls-6{fill:#ae122a;}.cls-4,.cls-6{font-size:58.28px;font-family:Exo2-Bold, Exo 2;font-weight:700;}.cls-5{letter-spacing:-0.02em;}.cls-6{letter-spacing:-0.01em;}.cls-7{letter-spacing:0em;}.cls-8{clip-path:url(#clip-path);}.cls-9{stroke:#f8d8cd;stroke-linecap:round;stroke-linejoin:round;stroke-width:6px;}</style><clipPath id="clip-path"><circle class="cls-1" cx="77.25" cy="77.25" r="67.75"/></clipPath></defs><title>logo-comedor1</title><g id="Capa_2" data-name="Capa 2"><g id="Capa_1-2" data-name="Capa 1"><circle class="cls-2" cx="77.25" cy="77.25" r="77.25"/><circle class="cls-3" cx="77.25" cy="77.25" r="67.75"/><text class="cls-4" transform="translate(171.35 77.36)">SISTEM<tspan class="cls-5" x="206.55" y="0">A</tspan></text><text class="cls-6" transform="translate(171.35 129.98)">C<tspan class="cls-7" x="33.57" y="0">OMEDOR</tspan></text><g class="cls-8"><path class="cls-9" d="M61.85,58.46l14.23,29.6a6.49,6.49,0,0,1,.28,4.71L72.91,103.7a5.35,5.35,0,0,0,.32,4.06l30.27,62.08s2.89,7.51-4.19,10.78-10.92-3.8-10.92-3.8L60.8,113.5a5.35,5.35,0,0,0-2.88-2.88l-10.56-4.47a6.49,6.49,0,0,1-3.4-3.27l-13.28-30m10.39-4.79L55,98.27m-3.55-35L65.4,93.48"/><path class="cls-9" d="M118.89,87.53c4-5.61,4.67-13.82.47-22.91-6-13-19.81-22.93-29.2-18.6s-10.82,21.25-4.8,34.29C89.55,89.4,96.25,94.2,103.1,94.82a4.52,4.52,0,0,1,3.79,2.71l25.18,59.18s3.84,7.07,10.92,3.81,4.19-10.78,4.19-10.78L118.49,92.17A4.52,4.52,0,0,1,118.89,87.53Z"/></g></g></g></svg>