<?xml version="1.0" encoding="UTF-8"?>
<!DOCTYPE svg PUBLIC "-//W3C//DTD SVG 1.1//EN" "http://www.w3.org/Graphics/SVG/1.1/DTD/svg11.dtd">
<!-- Creator: CorelDRAW X8 -->
<svg xmlns="http://www.w3.org/2000/svg" xml:space="preserve" width="415.684mm" height="89.4043mm" version="1.1" style="shape-rendering:geometricPrecision; text-rendering:geometricPrecision; image-rendering:optimizeQuality; fill-rule:evenodd; clip-rule:evenodd"
viewBox="0 0 23271 5005"
 xmlns:xlink="http://www.w3.org/1999/xlink">
 <defs>
  <style type="text/css">
   <![CDATA[
    .fil1 {fill:#FEFEFE}
    .fil0 {fill:#00A0E3}
    .fil2 {fill:#6E6E6E}
    .fil3 {fill:#2B2A29;fill-rule:nonzero}
   ]]>
  </style>
 </defs>
 <g id="Capa_x0020_1">
  <metadata id="CorelCorpID_0Corel-Layer"/>
  <g id="_2160889518352">
   <g>
    <path class="fil0" d="M7036 1228l3591 0c51,0 93,42 93,93l0 3591c0,51 -42,93 -93,93l-3591 0c-51,0 -93,-42 -93,-93l0 -3591c0,-51 42,-93 93,-93z"/>
    <path class="fil1" d="M10129 2105c0,151 -119,274 -268,280l0 0 -12 0 -738 0 0 1745 0 6 0 0c-3,152 -127,274 -280,274 -152,0 -277,-122 -279,-274l-1 0 0 -6 0 -1745 -732 0c-154,0 -280,-125 -280,-280 0,-155 126,-280 280,-280l2030 0 12 0 0 0c149,7 268,129 268,280z"/>
    <path class="fil2" d="M429 2503c52,-52 106,-98 162,-140 -117,-481 12,-1009 388,-1384 375,-376 903,-505 1384,-388 42,-56 88,-110 140,-162 572,-572 1500,-572 2073,0 48,49 93,101 133,154 -211,23 -375,202 -375,420 0,9 0,19 1,29 -41,-74 -92,-144 -155,-207 -354,-354 -928,-354 -1282,0 -149,150 -235,338 -259,533 -355,-337 -916,-332 -1264,17 -349,348 -354,909 -17,1264 -195,24 -383,110 -533,259 -354,354 -354,928 0,1282 177,177 409,265 641,265l1152 0 578 0c213,246 485,439 792,560l-2522 0c-375,0 -750,-143 -1037,-429 -572,-573 -572,-1501 0,-2073zm4607 -504c0,154 -126,280 -280,280 -155,0 -280,-126 -280,-280l0 -996c0,-155 125,-280 280,-280 154,0 280,125 280,280l0 996zm549 -579c627,306 1059,951 1059,1697 0,1043 -845,1888 -1888,1888 -1043,0 -1889,-845 -1889,-1888 0,-737 422,-1375 1037,-1686 43,-27 95,-43 150,-43 154,0 280,125 280,280 0,122 -79,226 -189,264l3 3c-428,221 -721,667 -721,1182 0,733 595,1328 1329,1328 734,0 1328,-595 1328,-1328 0,-515 -292,-961 -720,-1182l1 -2c-111,-37 -191,-142 -191,-265 0,-155 126,-280 280,-280 47,0 92,11 131,32l0 0zm5883 -192c154,0 280,126 280,280l0 3217c0,155 -126,280 -280,280 -155,0 -280,-125 -280,-280l0 -3217c0,-154 125,-280 280,-280z"/>
   </g>
   <path class="fil3" d="M12971 1473c119,0 202,30 250,90 47,61 70,169 70,325 0,156 -23,264 -70,324 -48,61 -131,91 -250,91 -118,0 -200,-30 -247,-91 -48,-60 -71,-168 -71,-324 0,-156 23,-264 71,-325 47,-60 129,-90 247,-90zm156 170c-29,-45 -81,-67 -156,-67 -74,0 -126,22 -154,67 -28,45 -43,127 -43,245 0,118 15,199 43,244 28,45 80,68 154,68 75,0 127,-23 156,-68 28,-45 43,-126 43,-244 0,-118 -15,-200 -43,-245zm814 -58l-296 0c-27,0 -46,6 -58,17 -11,11 -16,30 -16,58l0 172 326 0 0 94 -326 0 0 362 -116 0 0 -653c0,-47 14,-84 43,-110 29,-26 68,-39 118,-39 153,0 263,3 331,10l-6 89zm258 703l-116 0 0 -800 116 0 0 800zm708 -102l11 88c-64,18 -143,27 -237,27 -117,0 -199,-30 -246,-92 -47,-62 -71,-169 -71,-321 0,-152 24,-259 71,-321 47,-62 129,-93 246,-93 83,0 157,8 221,23l-12 90c-61,-7 -131,-10 -209,-10 -74,0 -124,23 -153,67 -28,45 -42,126 -42,244 0,117 14,198 42,243 29,45 79,67 153,67 98,0 173,-4 226,-12zm265 102l-116 0 0 -800 116 0 0 800zm820 -800l0 754c0,31 -14,46 -42,46l-111 0c-23,0 -39,-12 -49,-36l-249 -545c-28,-60 -44,-97 -48,-111l-16 0c4,31 6,68 6,111l0 581 -116 0 0 -755c0,-30 14,-45 44,-45l106 0c23,0 40,12 51,36l243 531c3,7 8,18 16,34 7,16 15,31 21,45 7,14 13,28 18,40l18 0c-4,-46 -6,-88 -6,-124l0 -562 114 0zm619 559l-318 0 -75 241 -118 0 250 -769c7,-21 21,-31 43,-31l119 0c23,0 37,10 41,31l252 769 -120 0 -74 -241zm-30 -101l-94 -304c-2,-7 -5,-18 -10,-32 -4,-15 -7,-26 -9,-33l-32 0 -18 65 -94 304 257 0zm562 342l0 -800c101,-7 197,-10 289,-10 117,0 199,29 246,89 47,59 70,166 70,321 0,154 -23,261 -70,321 -47,59 -129,89 -246,89 -92,0 -188,-3 -289,-10zm116 -708l0 614c49,2 107,3 173,3 72,0 123,-22 151,-67 28,-45 42,-126 42,-242 0,-117 -14,-198 -42,-242 -28,-45 -79,-68 -151,-68 -24,0 -54,1 -92,1 -39,0 -66,1 -81,1zm1146 611l6 90c-70,6 -185,9 -343,9 -50,0 -89,-13 -117,-39 -29,-26 -43,-61 -44,-105l0 -517c1,-44 15,-79 44,-104 28,-26 67,-39 117,-39 158,0 273,3 343,9l-6 90 -317 0c-24,0 -40,6 -50,17 -9,11 -14,30 -14,58l0 159 337 0 0 94 -337 0 0 204c0,27 5,46 14,58 10,11 26,16 50,16l317 0zm-5170 651l-254 0 0 696 -117 0 0 -696 -252 0 0 -103 623 0 0 103zm615 600l6 89c-71,6 -185,10 -343,10 -50,0 -89,-13 -117,-39 -29,-26 -44,-61 -44,-105l0 -517c0,-44 15,-79 44,-105 28,-26 67,-39 117,-39 158,0 272,3 343,10l-6 90 -318 0c-23,0 -39,6 -49,17 -10,11 -14,30 -14,57l0 160 337 0 0 94 -337 0 0 204c0,27 4,46 14,57 10,11 26,17 49,17l318 0zm666 -6l12 88c-64,19 -144,28 -238,28 -116,0 -198,-31 -245,-93 -48,-61 -71,-168 -71,-321 0,-152 23,-259 71,-321 47,-61 129,-92 245,-92 84,0 157,7 222,23l-12 89c-62,-6 -132,-9 -210,-9 -73,0 -124,22 -152,67 -28,45 -42,126 -42,243 0,118 14,199 42,244 28,45 79,67 152,67 98,0 174,-4 226,-13zm775 -697l0 754c0,30 -14,45 -43,45l-110 0c-23,0 -39,-12 -49,-36l-250 -544c-27,-61 -43,-98 -47,-112l-16 0c4,31 6,68 6,112l0 580 -116 0 0 -754c0,-30 14,-45 44,-45l106 0c23,0 40,12 51,36l242 530c4,7 9,19 17,34 7,16 15,31 21,46 7,14 13,27 18,40l17 0c-3,-47 -5,-88 -5,-124l0 -562 114 0zm485 -15c119,0 202,30 249,90 47,60 71,168 71,324 0,156 -24,265 -71,325 -47,60 -130,90 -249,90 -118,0 -201,-30 -248,-90 -47,-60 -71,-169 -71,-325 0,-156 24,-264 71,-324 47,-60 130,-90 248,-90zm155 170c-29,-45 -80,-67 -155,-67 -75,0 -127,22 -155,67 -28,45 -42,126 -42,244 0,119 14,200 42,245 28,45 80,67 155,67 75,0 126,-22 155,-67 29,-45 43,-126 43,-245 0,-118 -14,-199 -43,-244zm444 -155l0 628c0,27 5,46 16,57 11,11 30,17 57,17l284 0 6 89c-75,7 -178,11 -309,11 -113,0 -170,-53 -170,-158l0 -644 116 0zm757 -15c118,0 202,30 249,90 47,60 70,168 70,324 0,156 -23,265 -70,325 -47,60 -131,90 -249,90 -119,0 -201,-30 -248,-90 -48,-60 -71,-169 -71,-325 0,-156 23,-264 71,-324 47,-60 129,-90 248,-90zm155 170c-29,-45 -81,-67 -155,-67 -75,0 -127,22 -155,67 -28,45 -42,126 -42,244 0,119 14,200 42,245 28,45 80,67 155,67 74,0 126,-22 155,-67 28,-45 43,-126 43,-245 0,-118 -15,-199 -43,-244zm886 183l0 461 -85 0 -12 -81c-67,64 -146,96 -238,96 -88,0 -151,-33 -191,-101 -39,-67 -59,-173 -59,-317 0,-107 11,-191 34,-250 22,-59 57,-101 105,-125 48,-24 115,-36 202,-36 83,0 157,8 222,24l-11 88c-65,-6 -133,-9 -204,-9 -37,0 -66,2 -88,6 -23,4 -44,13 -63,25 -19,12 -34,31 -43,54 -10,24 -18,55 -23,92 -5,37 -8,83 -8,139 0,115 12,196 35,241 24,46 65,68 125,68 56,0 119,-23 189,-70l0 -305 113 0zm420 -516l-231 136 -38 -52 205 -169 64 85zm-131 977l-116 0 0 -799 116 0 0 799zm619 -241l-319 0 -74 241 -118 0 250 -768c6,-21 20,-31 43,-31l118 0c23,0 37,10 42,31l251 768 -119 0 -74 -241zm-31 -101l-93 -303c-3,-7 -6,-18 -10,-33 -4,-14 -8,-25 -10,-32l-31 0 -19 65 -94 303 257 0zm617 12l-162 -45c-57,-16 -98,-42 -123,-78 -24,-37 -36,-87 -36,-149 0,-46 5,-83 14,-111 10,-28 27,-50 51,-64 24,-15 50,-25 80,-29 29,-5 69,-7 118,-7 94,0 175,8 241,24l-7 85c-112,-4 -188,-6 -229,-6 -61,0 -101,6 -121,18 -20,12 -30,43 -30,93 0,40 7,67 21,84 15,16 40,29 75,38l159 44c59,16 101,42 126,79 24,36 36,85 36,148 0,88 -20,147 -60,176 -40,29 -111,44 -212,44 -85,0 -169,-8 -252,-23l9 -86c120,4 202,6 245,6 60,-1 101,-9 121,-23 21,-15 31,-47 31,-95 0,-41 -7,-70 -21,-85 -14,-16 -39,-29 -74,-38zm-6985 1581l0 -800c101,-7 197,-10 288,-10 118,0 200,30 247,89 46,60 70,167 70,321 0,155 -24,262 -70,321 -47,60 -129,89 -247,89 -91,0 -187,-3 -288,-10zm116 -708l0 614c49,2 107,3 172,3 73,0 123,-22 152,-67 28,-45 42,-125 42,-242 0,-117 -14,-197 -42,-242 -29,-45 -79,-67 -152,-67 -23,0 -54,0 -92,0 -38,1 -65,1 -80,1zm1146 612l5 89c-70,6 -184,9 -343,9 -49,0 -88,-13 -117,-39 -28,-26 -43,-60 -44,-105l0 -516c1,-44 16,-79 44,-105 29,-26 68,-39 117,-39 159,0 273,3 343,9l-5 91 -318 0c-23,0 -39,5 -49,16 -10,12 -15,31 -15,58l0 160 338 0 0 94 -338 0 0 203c0,28 5,47 15,58 10,11 26,17 49,17l318 0zm530 -704l0 628c0,27 6,46 17,58 10,11 29,17 56,17l284 0 6 89c-75,7 -178,10 -308,10 -114,0 -170,-52 -170,-157l0 -645 115 0zm908 559l-319 0 -74 241 -118 0 250 -768c6,-21 20,-32 43,-32l118 0c23,0 37,11 42,32l251 768 -119 0 -74 -241zm-30 -101l-94 -304c-3,-7 -6,-17 -10,-32 -4,-15 -8,-26 -10,-32l-31 0 -19 64 -94 304 258 0zm678 342l-116 0 0 -800 116 0 0 800zm820 -800l0 755c0,30 -14,45 -43,45l-110 0c-23,0 -40,-12 -50,-36l-249 -545c-28,-60 -44,-97 -48,-111l-16 0c4,31 6,68 6,111l0 581 -116 0 0 -755c0,-30 15,-45 44,-45l107 0c22,0 39,12 51,36l242 531c3,7 9,18 16,34 8,16 15,31 22,45 6,15 12,28 18,40l17 0c-4,-46 -6,-87 -6,-124l0 -562 115 0zm679 98l-297 0c-27,0 -46,5 -57,16 -11,12 -17,31 -17,58l0 172 327 0 0 94 -327 0 0 362 -116 0 0 -653c0,-47 15,-83 44,-110 29,-26 68,-39 117,-39 153,0 264,3 332,10l-6 90zm423 -113c119,0 202,30 249,91 47,60 71,168 71,324 0,156 -24,264 -71,325 -47,60 -130,90 -249,90 -118,0 -201,-30 -248,-90 -47,-61 -71,-169 -71,-325 0,-156 24,-264 71,-324 47,-61 130,-91 248,-91zm155 171c-28,-45 -80,-68 -155,-68 -75,0 -127,23 -155,68 -28,44 -42,126 -42,244 0,118 14,200 42,245 28,44 80,67 155,67 75,0 127,-23 155,-67 29,-45 43,-127 43,-245 0,-118 -14,-200 -43,-244zm903 644l-124 0 -68 -249c-17,-54 -51,-80 -101,-80l-165 -1 0 330 -115 0 0 -800c66,-7 159,-10 280,-10 96,0 164,16 204,50 40,33 60,94 60,182 0,64 -11,112 -34,144 -23,33 -61,53 -113,60l0 5c52,16 85,54 101,116l75 253zm-458 -429l162 0c58,-1 97,-11 118,-31 21,-19 32,-57 32,-111 0,-55 -11,-91 -32,-111 -21,-19 -60,-28 -118,-28 -78,0 -132,0 -162,1l0 280zm1240 -371l126 0c31,0 46,16 48,48l32 752 -116 0 -27 -704 -24 0 -162 569c-7,27 -23,40 -50,40l-100 0c-27,0 -44,-13 -51,-40l-164 -569 -22 0 -26 704 -115 0 30 -752c2,-32 17,-48 47,-48l129 0c24,0 40,13 49,40l135 468c8,28 17,64 27,108l21 0c9,-41 18,-78 28,-109l134 -467c9,-27 26,-40 51,-40zm809 559l-319 0 -74 241 -118 0 250 -768c6,-21 21,-32 43,-32l118 0c23,0 37,11 42,32l251 768 -119 0 -74 -241zm-30 -101l-94 -304c-2,-7 -6,-17 -10,-32 -4,-15 -7,-26 -10,-32l-31 0 -19 64 -93 304 257 0zm839 240l11 88c-64,18 -143,28 -237,28 -117,0 -199,-31 -246,-93 -47,-62 -71,-169 -71,-321 0,-152 24,-259 71,-321 47,-62 129,-93 246,-93 83,0 157,8 221,24l-11 89c-62,-6 -132,-9 -210,-9 -74,0 -124,22 -153,67 -28,45 -42,126 -42,243 0,117 14,199 42,243 29,45 79,68 153,68 98,0 173,-5 226,-13zm265 102l-116 0 0 -800 116 0 0 800zm672 -977l-230 136 -37 -53 205 -169 62 86zm-188 162c119,0 203,30 250,91 47,60 70,168 70,324 0,156 -23,264 -70,325 -47,60 -131,90 -250,90 -118,0 -200,-30 -247,-90 -48,-61 -71,-169 -71,-325 0,-156 23,-264 71,-324 47,-61 129,-91 247,-91zm156 171c-29,-45 -81,-68 -156,-68 -74,0 -126,23 -154,68 -28,44 -43,126 -43,244 0,118 15,200 43,245 28,44 80,67 154,67 75,0 127,-23 156,-67 28,-45 43,-127 43,-245 0,-118 -15,-200 -43,-244zm956 -156l0 755c0,30 -15,45 -43,45l-110 0c-23,0 -40,-12 -50,-36l-249 -545c-28,-60 -44,-97 -48,-111l-16 0c4,31 6,68 6,111l0 581 -116 0 0 -755c0,-30 15,-45 44,-45l107 0c22,0 39,12 51,36l242 531c3,7 8,18 16,34 8,16 15,31 21,45 7,15 13,28 18,40l18 0c-4,-46 -6,-87 -6,-124l0 -562 115 0z"/>
  </g>
 </g>
</svg>
