<svg xmlns="http://www.w3.org/2000/svg" height="595.28" width="841.89"><path d="M558.6 199.47v132h129v-132z" fill="#0089d4" fill-rule="evenodd"/><path d="M503.24 203.4l.75 2.66.25 32.58.74 55.26a30.67 30.67 0 01-2.98 10.67 41.74 41.74 0 01-6.59 9.72 46.89 46.89 0 01-9.57 8.1 57.04 57.04 0 01-11.93 5.81 63.28 63.28 0 01-13.92 3.14c-4.97.58-9.95.67-14.92.29a67.85 67.85 0 01-14.41-2.67 50.89 50.89 0 01-12.43-5.52c-6.3-3.69-11.2-8-14.67-12.96a36.7 36.7 0 01-6.46-16l-.25-12.58v-76.03a6.6 6.6 0 012.36-4.2c1.4-1.26 3.02-2.09 4.85-2.47a11.4 11.4 0 015.47-.2c1.82.39 3.4 1.03 4.72 1.91a11.33 11.33 0 012.98 3.24c.66 1.15.83 2.42.5 3.81l.25 23.82.5 61.74c.16 2.29.9 4.54 2.23 6.76a29.49 29.49 0 004.97 6.2 31.74 31.74 0 006.84 4.95 31.19 31.19 0 008.08 3.05 43.24 43.24 0 0019.14.29c6.46-1.34 11.85-3.91 16.16-7.72 4.97-4.57 7.54-9.66 7.7-15.24v-28.2l-.24-58.31c.5-2.92 2.48-4.9 5.96-5.91a11.44 11.44 0 017.96-.19c2.65.89 4.64 2.29 5.96 4.2zm38.04-.58a5.55 5.55 0 011.24 3.62v3.81l.25 115.1a8.32 8.32 0 01-1.87 3.23 10.02 10.02 0 01-3.6 2.48c-1.33.5-2.82.82-4.48.95a10.2 10.2 0 01-4.47-.57c-1.5-.5-2.86-1.24-4.1-2.2a6.24 6.24 0 01-2.36-3.14l-.25-2.85-.25-87.47v-29.72c.16-1.4.79-2.7 1.86-3.9a10.18 10.18 0 014.35-2.77c2.49-.89 5.06-.98 7.71-.29 2.65.7 4.64 1.94 5.97 3.72zM330.68 184.45a5.55 5.55 0 011.25 3.62v3.8l.25 38.85c0 1.1-1 2.26-1.87 3.24a9.6 9.6 0 01-3.6 2.47c-1.26.5-2.87.87-4.48.96-1.6.09-3.18-.13-4.47-.58-1.43-.49-2.91-1.27-4.1-2.19-1.2-.91-2.26-1.97-2.37-3.14l-.24-2.86-.25-40.93c-.01-1.4.83-2.74 1.86-3.9a10.23 10.23 0 014.35-2.77c2.49-.9 5.06-.99 7.7-.29 2.66.7 4.65 1.94 5.97 3.72z" fill="#565757" fill-rule="evenodd"/><path d="M383.05 239.74a61.91 61.91 0 014.67 17.82c.7 6.29.54 12.51-.48 18.67a71.38 71.38 0 01-5.33 17.73 56.77 56.77 0 01-9.9 15.14 66.04 66.04 0 01-15.54 13.06 65.95 65.95 0 01-18.2 7.62 69.7 69.7 0 01-19.62 2 66.8 66.8 0 01-19.82-3.81 58.43 58.43 0 01-12.96-6.39 71.35 71.35 0 01-20.96-21.25 54.56 54.56 0 01-6.1-12.95 61.66 61.66 0 01-3.9-18.67c-.32-6.35.25-12.61 1.71-18.77a68.6 68.6 0 016.86-17.63 64.95 64.95 0 0111.53-15.05 56.6 56.6 0 0115.82-11.43c3.55-1.74-.56-.35 3.16-1.46 8.62 1.22 10.4 6.53 7.75 14.5a40.15 40.15 0 00-7.3 3.92 47.9 47.9 0 00-10.95 9.52 52.66 52.66 0 00-7.62 11.91 48.97 48.97 0 00-4 13.53c-.7 4.76-.73 9.56-.1 14.39.51 4.57 1.78 9.08 3.81 13.53a51.14 51.14 0 007.82 12.2 55.37 55.37 0 0010.76 9.61c4 2.73 8.23 4.74 12.67 6 9.53 2.93 18.87 3.09 28.01.48a51.86 51.86 0 0023.82-14.57 46.91 46.91 0 007.91-11.72 52.38 52.38 0 004.86-28.1 44.43 44.43 0 00-3.81-13.92c-2.16-5.72-5.69-10.99-10.58-15.81-4.89-4.83-10.13-8.39-15.72-10.67-.19-.1-.38-.18-.58-.26-3.5-8.3-1.84-13.63 7.06-14.8 2.41.75-2.32-.98 0 0 3.78 1.6 7.5 3.56 11.05 6.1a79.39 79.39 0 0110 8.48 66.15 66.15 0 0114.2 21.05z" fill="#565757" fill-rule="evenodd"/><path d="M234.54 186.33c-20.81-1.07-33.58 3.56-45.13 14.66-13.34 12.83-15.22 20.94-16.17 44.45-17.23 12.74-23.1 50.86 4.99 74.43 10.68 8.97 24.36 12.6 41.48 12.56 8.34-.02 64.1 1.01 86.75.03a67.99 67.99 0 01-10.46-2.8 58.42 58.42 0 01-12.96-6.37 69.25 69.25 0 01-12.27-10.2c-30.36.77-65.06 1.43-76.68-5.73-20.32-12.52-22.1-39.07-.47-55.2.26-12.23-5.43-25.17 10.7-38.5 11.84-9.8 23.82-8.14 40.67-6.31 16.3-35.08 50.24-30.9 63.55-14.4l-.05-8.2c0-1.41.84-2.75 1.87-3.91a10.23 10.23 0 014.35-2.77c1.99-.7 4.03-.91 6.12-.6l-.3-.3c-6.06-6.04-15.8-12.15-27.54-14.65-19.85-4.24-40.1 2.56-52.87 17.38zm95.09 3.4l2.3.24c-1.4-2.52-1.73-3.33-2.3-4.06v3.02z" fill="#565757" fill-rule="evenodd"/><path d="M163.6 359.23v-5.74c0-1.81.36-3.08 1.09-3.82.73-.74 2.02-1.1 3.86-1.1h2.13c1.98 0 3.31.4 3.98 1.18.67.78 1 2.07 1 3.87v5.4c0 1.92-.36 3.26-1.1 4.02-.74.75-1.97 1.12-3.71 1.12h-2.28c-1.94 0-3.25-.38-3.94-1.11-.7-.75-1.04-2.02-1.04-3.82zm1.72-5.61v5.46c0 1.36.2 2.3.61 2.8s1.25.75 2.52.75h2.4c1.17 0 1.97-.24 2.42-.73.44-.5.66-1.41.66-2.74v-5.41c0-1.51-.21-2.5-.65-2.96-.44-.46-1.27-.7-2.48-.7h-2.3c-1.26 0-2.1.25-2.54.73-.42.49-.64 1.42-.64 2.8zm4.54-5.85zm7.88 16.23v-15.27h9.36v1.53h-7.63v5.2h7.4V357h-7.4v7zm11.3-15.27h1.74V364h-1.73zm.9-.96zm.03 16.23zm-2.39-15.43zm16.06 10.34h1.73v1.4c0 1.37-.37 2.35-1.1 2.95-.75.6-2.12.9-4.1.9h-2.5c-1.36 0-2.46-.4-3.29-1.2-.83-.79-1.24-2.04-1.24-3.73v-5.79c0-1.53.38-2.72 1.14-3.58.77-.86 2.48-1.3 5.13-1.3h1.48c1.56 0 2.67.33 3.33.98.66.64 1 1.74 1 3.3v.65h-1.74v-.48c0-1.18-.2-1.96-.6-2.34-.4-.38-1.1-.58-2.12-.58h-1.23c-1.97 0-3.24.25-3.81.73-.57.48-.85 1.28-.85 2.4v4.71c0 1.96.21 3.23.63 3.82.42.59 1.26.88 2.52.88h2.08c1.41 0 2.35-.16 2.83-.5.48-.33.71-1.03.71-2.1zm-4.23-11.14zm0 16.23zm7.82-15.27h1.73V364h-1.73zm.9-.96zm.01 16.23zm-2.38-15.43zm6.03.16h2.82l8.64 13.95v-13.95h1.73V364h-2.83l-8.64-13.9V364h-1.72zm7.16-.96zm-.94 16.23zm-7.6-15.43zM226.47 364l5.56-15.27h2.44l5.56 15.27h-1.78l-1.18-3.26h-7.59l-1.2 3.26zm3.5-4.8v.01h6.6l-3.28-9.05zm3.45-11.43zm5.61 16.23zm-12.7-15.43zm22.44.16h1.73v11.08c0 1.25.27 2.03.81 2.34.55.32 1.68.48 3.4.48 2.1 0 3.36-.21 3.77-.63.42-.44.63-1.15.63-2.14v-11.13h1.73v10.73c0 1.89-.41 3.14-1.24 3.77-.82.62-2.39.93-4.71.93-2.66 0-4.35-.34-5.06-1-.7-.67-1.06-1.85-1.06-3.52zm6.04-.96zm.37 16.23zm-7.88-15.43zm16.38.16h2.83l8.64 13.95v-13.95h1.72V364h-2.83l-8.63-13.9V364h-1.73zm7.17-.96zm-.94 16.23zm-7.61-15.43zm17.4.16h1.74V364h-1.74zm.9-.96zm.02 16.23zm-2.38-15.43zm11.1 14.23h.01l4.79-14.07h1.87L290.6 364h-2.46l-5.41-15.27h1.87zm7.46 1.2v-15.27h9.83v1.53h-8.1v5.05h7.76v1.52h-7.76v5.64h8.1V364zm5.31-16.23zm3.02 16.23zm-9.16-15.43zm12.8 15.43v-15.27h7.16c1.71 0 2.9.34 3.57 1 .68.67 1.02 1.84 1.02 3.51 0 1.37-.22 2.34-.65 2.9-.42.56-1.12.9-2.08 1.02 1.67.11 2.5 1.03 2.5 2.75V364h-1.73v-3.16c0-1.07-.17-1.83-.52-2.28-.35-.46-1.02-.69-2.03-.69h-5.5V364zm1.73-13.74v6.08h5.37c1.2 0 1.98-.23 2.35-.7.38-.46.57-1.4.57-2.79 0-1.08-.2-1.78-.62-2.1-.4-.33-1.18-.5-2.33-.5zm4.05-2.49zm-.18 16.23zm-7-15.43zm15.73.16h1.73V364h-1.73zm.9-.96zm.02 16.23zm-2.38-15.43zm4.8.16h11.58v1.53h-4.92V364h-1.73v-13.74h-4.93zm5.93-.96zm-.45 16.23zm-5.64-15.43zM338.22 364l5.56-15.27h2.44l5.56 15.27H350l-1.18-3.26h-7.59l-1.2 3.26zm3.5-4.8v.01h6.59l-3.27-9.05h-.01zm3.44-11.43zm5.62 16.23zm-12.7-15.43zM353.43 364v-15.27h7.15c1.72 0 2.9.34 3.58 1 .67.67 1.01 1.84 1.01 3.51 0 1.37-.21 2.34-.64 2.9-.43.56-1.12.9-2.09 1.02 1.67.11 2.5 1.03 2.5 2.75V364h-1.72v-3.16c0-1.07-.18-1.83-.53-2.28-.34-.46-1.02-.69-2.03-.69h-5.5V364zm1.73-13.74v6.08h5.37c1.19 0 1.97-.23 2.34-.7.38-.46.57-1.4.57-2.79 0-1.08-.2-1.78-.61-2.1-.41-.33-1.19-.5-2.33-.5zm4.05-2.49zm-.19 16.23zm-7-15.43zm15.74.16h1.73V364h-1.73zm.9-.96zm.01 16.23zm-2.38-15.43zm4.79 15.43l5.55-15.27h2.45l5.55 15.27h-1.78l-1.18-3.26h-7.58l-1.2 3.26zm3.5-4.8v.01h6.58l-3.27-9.05zm3.44-11.43zm5.61 16.23zm-12.7-15.43zM393.2 364v-15.27h7.75c3.3 0 4.96 1.99 4.96 5.96v3.53c0 3.85-1.64 5.78-4.91 5.78zm1.73-1.53h5.78c1.23 0 2.12-.32 2.65-.96.54-.65.82-1.77.82-3.39v-4.23c0-1.02-.28-1.88-.84-2.58a2.84 2.84 0 00-2.37-1.05h-6.04zm3.73-14.7zm-6.76.8zM407.67 364v-15.27h9.83v1.53h-8.1v5.05h7.76v1.52h-7.76v5.64h8.1V364zm5.32-16.23zm3 16.23zm-9.15-15.43zm19.89.16h1.73V364h-1.73zm.9-.96zm.01 16.23zm-2.38-15.43zm6.03.16h2.83l8.63 13.95v-13.95h1.73V364h-2.83L433 350.1V364h-1.72zm7.16-.96zm-.93 16.23zm-7.62-15.43zM447.17 364v-15.27h9.36v1.53h-7.63v5.2h7.4V357h-7.4v7zm10.68-4.77v-5.74c0-1.81.36-3.08 1.1-3.82.73-.74 2.01-1.1 3.85-1.1h2.14c1.98 0 3.3.4 3.98 1.18.66.78 1 2.07 1 3.87v5.4c0 1.92-.37 3.26-1.1 4.02-.74.75-1.98 1.12-3.71 1.12h-2.28c-1.94 0-3.26-.38-3.94-1.11-.7-.75-1.04-2.02-1.04-3.82zm1.73-5.61v5.46c0 1.36.2 2.3.6 2.8.42.5 1.26.75 2.53.75h2.4c1.16 0 1.97-.24 2.42-.73.44-.5.66-1.41.66-2.74v-5.41c0-1.51-.22-2.5-.65-2.96-.44-.46-1.27-.7-2.48-.7h-2.3c-1.26 0-2.11.25-2.54.73-.43.49-.64 1.42-.64 2.8zm4.54-5.85zm7.96 16.23v-15.27h7.15c1.72 0 2.9.34 3.58 1 .67.67 1.01 1.84 1.01 3.51 0 1.37-.21 2.34-.64 2.9-.43.56-1.12.9-2.09 1.02 1.67.11 2.5 1.03 2.5 2.75V364h-1.72v-3.16c0-1.07-.18-1.83-.53-2.28-.34-.46-1.02-.69-2.03-.69h-5.5V364zm1.73-13.74v6.08h5.37c1.19 0 1.97-.23 2.34-.7.38-.46.57-1.4.57-2.79 0-1.08-.2-1.78-.61-2.1-.41-.33-1.19-.5-2.33-.5zm4.05-2.49zm-.19 16.23zm-7-15.43zm15.7.16h2.99l5.32 13.06 5.37-13.06h2.99V364h-1.73v-14.07L495.58 364h-1.73l-5.75-14.07V364h-1.72zM504.72 364l5.56-15.27h2.44l5.56 15.27h-1.78l-1.18-3.26h-7.59l-1.2 3.26zm3.5-4.8v.01h6.6l-3.28-9.05zm3.44-11.43zm5.62 16.23zm-12.7-15.43zm5.42-1.62l3.03-2.35.8 1.1-3.27 2.07zm1.66.82zm7.03.96h11.58v1.53h-4.93V364h-1.73v-13.74h-4.92zm5.92-.96zm-.45 16.23zm-5.64-15.43zm13.26.16h1.73V364h-1.73zm.9-.96zm.01 16.23zm-2.38-15.43zm16.06 10.34h1.73v1.4c0 1.37-.37 2.35-1.11 2.95-.74.6-2.11.9-4.1.9h-2.5c-1.36 0-2.45-.4-3.28-1.2-.83-.79-1.24-2.04-1.24-3.73v-5.79c0-1.53.38-2.72 1.14-3.58.77-.86 2.48-1.3 5.13-1.3h1.47c1.57 0 2.68.33 3.34.98.66.64.99 1.74.99 3.3v.65h-1.73v-.48c0-1.18-.2-1.96-.6-2.34-.4-.38-1.1-.58-2.12-.58h-1.23c-1.97 0-3.25.25-3.82.73-.56.48-.84 1.28-.84 2.4v4.71c0 1.96.21 3.23.63 3.82.42.59 1.26.88 2.52.88h2.08c1.4 0 2.35-.16 2.83-.5.47-.33.71-1.03.71-2.1zm-4.23-11.14zm0 16.23zm6.5 0l5.55-15.27h2.44L562.2 364h-1.78l-1.18-3.26h-7.59l-1.2 3.26zm3.49-4.8v.01h6.6l-3.28-9.05h-.01zm3.44-11.43zM561.2 364zm-12.7-15.43zm20.83.16h2.02l4.48 7.16 4.44-7.16h2.06l-5.72 8.89V364h-1.73v-6.38zm6.96-.96zm-6.82.8zm22.35 10.66c0 1.55.19 2.5.54 2.87.36.35 1.47.53 3.33.53 1.78 0 2.92-.16 3.4-.5.49-.33.73-1.18.73-2.54v-.38c0-.46-.1-.92-.32-1.37-.2-.45-.74-.71-1.6-.77l-.86-.08-3.48-.23a4.2 4.2 0 01-2.6-.93c-.58-.54-.87-1.52-.87-2.92 0-1.54.32-2.64.96-3.32.65-.68 2.26-1.02 4.82-1.02 1.95 0 3.33.25 4.14.75.8.5 1.21 1.45 1.21 2.85v.7h-1.73c0-1.25-.21-2.02-.63-2.32-.42-.3-1.44-.46-3.06-.46-1.71 0-2.8.15-3.28.45-.47.3-.7.98-.7 2.05 0 1.12.16 1.82.49 2.1.32.28.8.44 1.47.48l4.5.3c2.17.15 3.27 1.4 3.27 3.76v.41c0 1.72-.34 2.9-1 3.56-.68.64-2.22.96-4.65.96-2.67 0-4.3-.34-4.9-1.03-.61-.7-.91-1.64-.91-2.83v-1.07zm4.05-11.46zm-.6 16.23zm8.35-15.27h1.73V364h-1.73zm.9-.96zm.01 16.23zm-2.38-15.43zm7.1 10.66c.01 1.55.2 2.5.55 2.87.36.35 1.47.53 3.33.53 1.78 0 2.92-.16 3.4-.5.49-.33.73-1.18.73-2.54v-.38c0-.46-.1-.92-.32-1.37-.2-.45-.74-.71-1.6-.77l-.86-.08-3.48-.23a4.2 4.2 0 01-2.6-.93c-.58-.54-.87-1.52-.87-2.92 0-1.54.32-2.64.96-3.32.65-.68 2.26-1.02 4.82-1.02 1.95 0 3.33.25 4.14.75.8.5 1.21 1.45 1.21 2.85v.7h-1.73c0-1.25-.21-2.02-.63-2.32-.42-.3-1.44-.46-3.06-.46-1.71 0-2.8.15-3.28.45-.47.3-.7.98-.7 2.05 0 1.12.16 1.82.49 2.1.32.28.81.44 1.47.48l4.5.3c2.17.15 3.27 1.4 3.27 3.76v.41c0 1.72-.34 2.9-1 3.56-.68.64-2.22.96-4.64.96-2.67 0-4.31-.34-4.92-1.03-.6-.7-.9-1.64-.9-2.83v-1.07zm4.06-11.46zm-.6 16.23zm7.05-15.27h11.58v1.53h-4.93V364h-1.73v-13.74h-4.92zm5.92-.96zm-.45 16.23zm-5.64-15.43zM632.21 364v-15.27h9.83v1.53h-8.1v5.05h7.75v1.52h-7.75v5.64h8.1V364zm5.31-16.23zm3.01 16.23zm-9.16-15.43zm12.83.16h2.99l5.32 13.06 5.36-13.06h3V364h-1.73v-14.07L653.4 364h-1.73l-5.75-14.07V364h-1.72zM662.55 364l5.56-15.27h2.44l5.56 15.27h-1.78l-1.18-3.26h-7.59l-1.2 3.26zm3.5-4.8v.01h6.6l-3.28-9.05zm3.44-11.43zm5.62 16.23zm-12.7-15.43zm16.4 10.66c.01 1.55.2 2.5.55 2.87.36.35 1.47.53 3.33.53 1.78 0 2.91-.16 3.4-.5.48-.33.72-1.18.72-2.54v-.38c0-.46-.1-.92-.31-1.37-.2-.45-.74-.71-1.6-.77l-.86-.08-3.48-.23a4.2 4.2 0 01-2.6-.93c-.58-.54-.87-1.52-.87-2.92 0-1.54.32-2.64.96-3.32.65-.68 2.25-1.02 4.82-1.02 1.95 0 3.33.25 4.14.75.8.5 1.2 1.45 1.2 2.85v.7h-1.72c0-1.25-.21-2.02-.64-2.32-.42-.3-1.43-.46-3.05-.46-1.72 0-2.8.15-3.28.45-.47.3-.7.98-.7 2.05 0 1.12.16 1.82.48 2.1.33.28.82.44 1.48.48l4.5.3c2.17.15 3.26 1.4 3.26 3.76v.41c0 1.72-.33 2.9-1 3.56-.67.64-2.21.96-4.64.96-2.67 0-4.3-.34-4.9-1.03-.61-.7-.91-1.64-.91-2.83v-1.07zm4.06-11.46zm-.6 16.23z" fill="#0089d4" fill-rule="evenodd"/><path d="M687.6 331.47h-129a481.27 481.27 0 00129-132z" fill="none"/><path d="M671.89 224.87c-3.74-4-8.87-7.5-15.4-10.51a69.57 69.57 0 00-20.74-5.84 88.78 88.78 0 00-30.53.92c-9.71 2.06-18.11 5.64-25.21 10.76a31.6 31.6 0 00-7.7 7.92 24.04 24.04 0 00-3.79 9.08c-.56 3.12-.37 6.23.57 9.34.93 3.12 2.61 6 5.04 8.67 4.85 5.78 11.9 10.31 21.15 13.6a83.3 83.3 0 0029.83 4.58c9.7.44 17.55 3.06 23.53 7.84 3.17 2.55 4.9 5.7 5.18 9.42.28 3.72-.89 6.97-3.5 9.75-2.99 3.12-6.96 5.5-11.9 7.17a44.7 44.7 0 01-16.11 2.17 43.48 43.48 0 01-16.53-3.42c-5.04-2.16-8.59-4.86-10.64-8.08a5.32 5.32 0 01-1.68-3l-.57-3.34a12.27 12.27 0 00-.98-3.17c-.46-1-1.54-1.89-3.22-2.67a18.9 18.9 0 00-6.44-1.66c-2.43-.23-4.76 0-7 .66-4.11 1.11-6.45 3.11-7 6 0 2.78.55 5.5 1.68 8.18.93 2.89 2.75 5.7 5.46 8.42 2.7 2.72 6.02 5.2 9.94 7.42a72.62 72.62 0 0012.89 5.67 63.27 63.27 0 0014.28 3c11.2 1.11 21.67.58 31.38-1.59 9.7-2.16 17.83-5.92 24.37-11.25 2.98-2.34 5.32-5 7-8 1.68-3 2.66-6.1 2.94-9.26.28-3.17-.14-6.3-1.26-9.42a24.17 24.17 0 00-5.32-8.5c-5.23-5.68-12.28-9.98-21.15-12.93-8.87-2.95-18.63-4.3-29.27-4.08-8.03-.45-14.85-2.45-20.45-6-4.11-2.56-6.58-5.76-7.42-9.6-.85-3.83.04-7.36 2.66-10.58 2.61-3.23 6.53-5.76 11.76-7.6a47.7 47.7 0 0116.8-2.58c5.8.12 11.21 1.2 16.25 3.26 5.05 2.05 8.69 4.7 10.93 7.92.37 1.55 1.26 3 2.66 4.33 1.4 1.34 3.4 2.28 6.02 2.84 2.43.55 4.86.66 7.29.33a13.38 13.38 0 006.16-2.33c1.68-1.12 2.66-2.26 2.94-3.42a5.96 5.96 0 00-.28-3.59 13.41 13.41 0 00-2.1-3.58c-.94-1.17-1.78-2.25-2.52-3.25z" fill="#fff" fill-rule="evenodd"/></svg>