<?xml version="1.0" encoding="UTF-8" standalone="no"?>
<svg
   xmlns:dc="http://purl.org/dc/elements/1.1/"
   xmlns:cc="http://creativecommons.org/ns#"
   xmlns:rdf="http://www.w3.org/1999/02/22-rdf-syntax-ns#"
   xmlns:svg="http://www.w3.org/2000/svg"
   xmlns="http://www.w3.org/2000/svg"
   xmlns:sodipodi="http://sodipodi.sourceforge.net/DTD/sodipodi-0.dtd"
   xmlns:inkscape="http://www.inkscape.org/namespaces/inkscape"
   inkscape:version="1.0 (4035a4fb49, 2020-05-01)"
   sodipodi:docname="OUIS.cdr.svg"
   viewBox="0 0 840 420"
   id="svg137"
   height="420"
   width="840"
   version="1.1">
  <metadata
     id="metadata143">
    <rdf:RDF>
      <cc:Work
         rdf:about="">
        <dc:format>image/svg+xml</dc:format>
        <dc:type
           rdf:resource="http://purl.org/dc/dcmitype/StillImage" />
        <dc:title></dc:title>
      </cc:Work>
    </rdf:RDF>
  </metadata>
  <defs
     id="defs141" />
  <sodipodi:namedview
     inkscape:current-layer="svg137"
     inkscape:window-maximized="1"
     inkscape:window-y="31"
     inkscape:window-x="0"
     inkscape:cy="251.13188"
     inkscape:cx="420.94489"
     inkscape:zoom="0.86010584"
     height="400.27557px"
     showgrid="false"
     id="namedview139"
     inkscape:window-height="709"
     inkscape:window-width="1366"
     inkscape:pageshadow="2"
     inkscape:pageopacity="0"
     guidetolerance="10"
     gridtolerance="10"
     objecttolerance="10"
     borderopacity="1"
     bordercolor="#666666"
     pagecolor="#ffffff" />
  <path
     id="path116"
     style="fill:#0089d4;fill-rule:evenodd;stroke-width:1.62818"
     d="M 616.7034,89.250046 V 322.72932 H 810.04428 V 89.250046 Z" />
  <g
     id="Layer1000" />
  <path
     id="path119"
     style="fill:#565757;fill-rule:evenodd;stroke-width:1.62818"
     d="m 533.72265,96.186326 1.11793,4.718574 0.37245,57.6329 1.11733,97.74018 c -0.49656,6.51619 -1.98692,12.80756 -4.47051,18.87431 -2.48362,6.06675 -5.77475,11.79617 -9.87343,17.18902 -4.09821,5.39246 -8.87972,10.16712 -14.34406,14.32359 -5.46435,4.15699 -11.42537,7.58347 -17.88356,10.27996 -6.45757,2.69651 -13.41228,4.55002 -20.86355,5.56087 -7.45139,1.01123 -14.9034,1.17979 -22.35465,0.50588 -7.45142,-0.67426 -14.65447,-2.24723 -21.60921,-4.71858 -6.9547,-2.47168 -13.16408,-5.72979 -18.62842,-9.77393 -9.43832,-6.51601 -16.76609,-14.15573 -21.98163,-22.91897 -5.21601,-8.76271 -8.44508,-18.19987 -9.68711,-28.31075 l -0.37244,-22.24455 V 100.5674 c 0.24818,-2.695984 1.42817,-5.167834 3.53934,-7.414554 2.11116,-2.24723 4.5327,-3.70769 7.26526,-4.38162 2.73178,-0.8989 5.46434,-1.0112 8.19673,-0.33696 2.73195,0.67393 5.0913,1.79762 7.07837,3.37042 1.9875,1.79744 3.47744,3.70718 4.47112,5.72927 0.99382,2.0226 1.24217,4.269314 0.74486,6.741174 l 0.37306,42.12953 0.74488,109.19958 c 0.24835,4.04416 1.36627,8.03276 3.35335,11.96457 1.9869,3.93236 4.47049,7.58348 7.45125,10.9537 2.98075,3.37044 6.39613,6.29159 10.246,8.76326 3.84971,2.47135 7.88574,4.26878 12.10866,5.3925 9.43832,2.69648 19.00087,2.86489 28.688,0.50534 9.68666,-2.35903 17.75886,-6.90904 24.21702,-13.64968 7.45125,-8.08884 11.30114,-17.07672 11.54949,-26.96313 V 202.68939 L 503.91674,99.556556 c 0.74547,-5.16819 3.72562,-8.65094 8.94163,-10.44836 3.97457,-1.79743 7.94852,-1.90976 11.9225,-0.33697 3.97398,1.57298 6.95474,4.04469 8.94178,7.4151 z m 57.00369,-1.01139 c 1.24145,1.79761 1.86283,3.93199 1.86283,6.403684 0,2.24672 0,4.49394 0,6.74066 l 0.37244,203.57007 c -0.49655,2.02206 -1.42832,3.932 -2.79459,5.72942 -1.36568,1.79744 -3.16645,3.25794 -5.4023,4.38162 -1.9869,0.89891 -4.22216,1.4605 -6.70578,1.68513 -2.48421,0.22471 -4.71945,-0.11236 -6.70652,-1.01138 -2.23526,-0.89838 -4.28436,-2.19047 -6.14777,-3.8756 -1.86283,-1.68527 -3.04219,-3.53879 -3.53933,-5.56086 l -0.37259,-5.05606 -0.37245,-154.69936 V 100.9049 c 0.24833,-2.471894 1.18012,-4.774834 2.7946,-6.909754 1.61447,-2.13439 3.78768,-3.76326 6.51962,-4.88695 3.72579,-1.5728 7.57611,-1.74139 11.55006,-0.50534 3.97398,1.23583 6.95474,3.42648 8.94178,6.57208 z" />
  <g
     id="Layer1001" />
  <path
     id="path122"
     style="fill:#565757;fill-rule:evenodd;stroke-width:1.62818"
     d="m 275.09845,62.678176 c 1.24158,1.79743 1.86282,3.93181 1.86282,6.40371 0,2.24668 -0.0122,4.62871 0,6.74063 l 0.37244,68.696984 c 0.01,1.93628 -1.50311,3.99902 -2.79445,5.72924 -1.29148,1.7299 -3.21471,3.36796 -5.40229,4.38165 -1.88724,0.87447 -4.29667,1.52822 -6.70592,1.68528 -2.40927,0.15729 -4.77266,-0.22165 -6.70639,-1.01139 -2.14053,-0.87342 -4.3593,-2.25767 -6.14777,-3.87575 -1.78861,-1.61737 -3.38765,-3.49405 -3.53948,-5.56086 l -0.37244,-5.0559 -0.37244,-72.403814 c -0.0122,-2.48194 1.25416,-4.84239 2.79444,-6.90957 1.53984,-2.06733 3.78783,-3.76342 6.51977,-4.88713 3.72563,-1.5728 7.57597,-1.74118 11.54993,-0.50534 3.97398,1.23585 6.95487,3.42649 8.94178,6.57226 z" />
  <g
     id="Layer1002" />
  <path
     id="path125"
     style="fill:#565757;fill-rule:evenodd;stroke-width:1.62818"
     d="m 353.58618,160.48558 c 3.61758,9.88644 5.94995,20.39087 6.99684,31.51313 1.04719,11.12227 0.80932,22.13186 -0.71386,33.02952 -1.52305,10.89764 -4.18846,21.34547 -7.99637,31.34456 -3.8079,9.99875 -8.75787,18.92984 -14.85048,26.7942 -6.85417,9.21234 -14.61222,16.90779 -23.27539,23.08685 -8.66253,6.17905 -17.7539,10.673 -27.2733,13.48181 -9.5191,2.80813 -19.32461,3.98789 -29.4152,3.53882 -10.09042,-0.44929 -19.99112,-2.69652 -29.70101,-6.74067 -6.66319,-2.69649 -13.13666,-6.45993 -19.41979,-11.29084 -6.28251,-4.83087 -12.08977,-10.44836 -17.42027,-16.85206 -5.33097,-6.40368 -9.99587,-13.3129 -13.99412,-20.7278 -3.99826,-7.41456 -7.04433,-15.0541 -9.13841,-22.91846 -3.42724,-10.78478 -5.37862,-21.79473 -5.85478,-33.02934 -0.47586,-11.23458 0.38099,-22.30061 2.57024,-33.19822 2.1897,-10.8973 5.61646,-21.28944 10.28138,-31.17585 4.66428,-9.88626 10.4236,-18.76128 17.27759,-26.62563 6.85416,-8.31344 14.75578,-15.05464 23.70386,-20.22248 5.31836,-3.070964 -0.842,-0.614644 4.74523,-2.574634 12.91441,2.149604 15.58761,11.551024 11.61317,25.658484 -3.92855,1.91292 -7.57295,4.21622 -10.93214,6.91274 -6.2831,4.71857 -11.75689,10.33552 -16.42121,16.85152 -4.66489,6.51601 -8.4728,13.53789 -11.42372,21.06478 -2.95092,7.52739 -4.94981,15.50389 -5.99716,23.92966 -1.04717,8.42594 -1.09485,16.90777 -0.14273,25.44638 0.76122,8.08901 2.6654,16.06548 5.71163,23.92932 3.04609,7.86417 6.94917,15.05461 11.70909,21.57064 4.75965,6.51601 10.13824,12.18918 16.13526,17.02008 5.99759,4.83074 12.32778,8.36952 18.99158,10.61678 14.27948,5.16783 28.27315,5.44853 41.98113,0.84228 13.70815,-4.60573 25.6073,-13.20041 35.69817,-25.78316 4.75963,-6.06641 8.71022,-12.97596 11.85149,-20.72748 3.14185,-7.75184 5.33111,-15.84085 6.56862,-24.26662 1.23754,-8.42629 1.47555,-16.9081 0.71416,-25.44638 -0.76181,-8.53809 -2.66554,-16.73923 -5.71208,-24.60358 -3.23642,-10.11086 -8.51988,-19.43571 -15.84973,-27.9738 -7.32987,-8.5386 -15.18353,-14.82998 -23.56073,-18.87412 -0.28895,-0.15296 -0.57911,-0.30333 -0.87003,-0.45139 -5.23802,-14.68055 -2.75727,-24.116084 10.57992,-26.174794 3.61457,1.31564 -3.48326,-1.73181 0,0 5.66909,2.818224 11.23295,6.291394 16.56391,10.785324 5.33094,4.49394 10.32842,9.49323 14.99334,14.99805 4.66429,5.50515 8.80523,11.45903 12.42279,17.86291 3.61758,6.40368 6.56864,12.86346 8.85305,19.37947 z" />
  <g
     id="Layer1003" />
  <path
     id="path128"
     style="fill:#565757;fill-rule:evenodd;stroke-width:1.62818"
     d="m 130.99421,66.011276 c -31.188068,-1.88962 -50.327281,6.28589 -67.636524,25.93279 -19.991562,22.690284 -22.807433,37.029964 -24.228573,78.621954 -25.823848,22.52933 -34.6343154,89.96236 7.469249,131.64507 16.019248,15.85997 36.509613,22.28417 62.182228,22.21591 12.49985,-0.0332 96.06119,1.79406 130.0103,0.048 -5.28119,-1.13452 -10.50858,-2.77858 -15.68188,-4.93314 -6.66335,-2.69635 -13.13666,-6.45976 -19.41978,-11.29066 -6.28266,-4.8309 -12.08979,-10.44836 -17.42043,-16.85207 -0.32374,-0.38912 -0.64537,-0.77968 -0.96401,-1.17268 -45.50951,1.3607 -97.509888,2.51342 -114.933632,-10.14874 -30.457276,-22.13313 -33.11938,-69.10804 -0.700966,-97.6215 0.391635,-21.64684 -8.14099,-44.53098 16.033626,-68.12084 17.746272,-17.318334 35.709992,-14.378264 60.955342,-11.14987 24.4435,-62.051494 75.29641,-54.666124 95.25395,-25.462304 l -0.0748,-14.52524 c -0.0122,-2.48177 1.25461,-4.8424 2.79459,-6.90958 1.53968,-2.06715 3.78798,-3.76342 6.51976,-4.88695 2.98031,-1.25813 6.04047,-1.61756 9.1792,-1.0786 l -0.44188,-0.5174 c -9.0942,-10.67901 -23.69921,-21.48344 -41.29381,-25.91514 -29.74178,-7.49238 -60.09924,4.524 -79.23307,30.73948 z m 142.52065,6.00111 3.44251,0.43972 c -2.07879,-4.46988 -2.58252,-5.89377 -3.45135,-7.17983 -0.002,1.81494 -0.008,3.66314 0.001,5.34029 z" />
  <g
     id="Layer1004" />
  <path
     id="path131"
     style="fill:#0089d4;fill-rule:evenodd;stroke-width:1.62818"
     d="m 24.667409,371.82466 v -10.1466 c 0,-3.20432 0.544205,-5.45405 1.637382,-6.75621 1.103242,-1.302 3.029907,-1.95028 5.785999,-1.95028 h 3.202846 c 2.969649,0 4.957615,0.69586 5.959381,2.09425 1.001322,1.37983 1.504763,3.66013 1.504763,6.8404 v 9.55249 c 0,3.39641 -0.549285,5.76641 -1.652227,7.10466 -1.103242,1.32606 -2.959465,1.98598 -5.562521,1.98598 h -3.411479 c -2.908516,-0.013 -4.881025,-0.66595 -5.913537,-1.96795 -1.0319,-1.3142 -1.550607,-3.56445 -1.550607,-6.75674 z m 2.593303,-9.92444 v 9.66673 c 0,2.40608 0.305005,4.05016 0.910055,4.94411 0.615078,0.89411 1.875993,1.33825 3.78272,1.33825 h 3.589545 c 1.749066,0 2.959009,-0.43213 3.625203,-1.30217 0.666218,-0.88193 0.996242,-2.4963 0.996242,-4.8424 v -9.57034 c 0,-2.67652 -0.324944,-4.42232 -0.980953,-5.23259 -0.655841,-0.82213 -1.89653,-1.22982 -3.711834,-1.22982 h -3.442069 c -1.89653,0 -3.167773,0.42575 -3.813454,1.28413 -0.63516,0.85784 -0.955455,2.50779 -0.955455,4.9441 z m 6.802587,-10.33251 z m 11.800978,28.69386 V 353.2597 h 14.033079 v 2.70007 H 48.457592 v 9.21657 h 11.104181 v 2.70041 H 48.457592 v 12.38482 z M 62.821138,353.2597 h 2.593315 v 27.00187 h -2.593315 z m 1.342142,-1.69199 z m 0.03043,28.69386 z m -3.569151,-27.29 z m 24.0697,18.28956 h 2.593303 v 2.47788 c 0,2.4181 -0.554532,4.15841 -1.667959,5.22641 -1.113595,1.05595 -3.162562,1.58393 -6.142084,1.58393 h -3.74197 c -2.038926,0 -3.675875,-0.70203 -4.921932,-2.11192 -1.240534,-1.40442 -1.860728,-3.61254 -1.860728,-6.61277 v -10.23628 c 0,-2.70659 0.569678,-4.81834 1.713384,-6.33047 1.154357,-1.52432 3.716938,-2.28634 7.68761,-2.28634 h 2.206628 c 2.344218,0 4.011758,0.5761 4.99313,1.72228 0.991281,1.13413 1.48963,3.07786 1.48963,5.83203 v 1.15819 h -2.592848 v -0.86388 c 0,-2.08219 -0.299924,-3.46256 -0.895219,-4.12834 -0.594721,-0.67797 -1.657344,-1.01986 -3.18758,-1.01986 h -1.835842 c -2.958998,0 -4.865737,0.42575 -5.719571,1.28413 -0.844261,0.84582 -1.266163,2.26173 -1.266163,4.24206 v 8.34068 c 0,3.45001 0.315345,5.70025 0.940633,6.7442 0.635615,1.04427 1.89653,1.56625 3.782876,1.56625 h 3.11667 c 2.110255,0 3.518502,-0.2938 4.235225,-0.88192 0.716855,-0.58813 1.072807,-1.82414 1.072807,-3.71426 z m -6.345013,-19.69342 z m 0,28.69386 z M 90.063425,353.2597 h 2.593327 v 27.00187 h -2.593327 z m 1.342154,-1.69199 z m 0.03055,28.69386 z m -3.569151,-27.29 z m 9.03004,0.28813 h 4.240462 l 12.94003,24.67983 h -0.004 V 353.2597 h 2.59288 v 27.00187 h -4.24045 L 99.486304,355.68348 h 0.0036 v 24.57809 h -2.592877 z m 10.738502,-1.69199 z m -1.40376,28.69386 z m -11.409183,-27.29 z m 24.105373,27.29 8.3282,-27.00187 h 3.66056 l 8.3282,27.00187 h -2.66931 l -1.76899,-5.76657 v 0.005 h -11.36886 v -0.005 l -1.80018,5.76657 z m 5.24177,-8.47246 v 0.013 h 9.87895 v -0.013 l -4.90618,-15.99738 h -0.01 z m 5.16055,-20.2214 z m 8.42006,28.69386 z m -19.03609,-27.29 z m 33.62326,0.28813 h 2.59316 v 19.59121 c 0,2.20815 0.40663,3.5885 1.22014,4.15256 0.82387,0.56406 2.52199,0.84584 5.08426,0.84584 3.15745,0 5.04364,-0.37799 5.65888,-1.12813 0.62545,-0.76217 0.94063,-2.02206 0.94063,-3.78042 V 353.2597 h 2.5933 v 18.97303 c 0,3.3423 -0.61523,5.56245 -1.84556,6.66653 -1.23544,1.09806 -3.58954,1.65009 -7.06728,1.65009 -3.99151,0 -6.51843,-0.59379 -7.58105,-1.77603 -1.06248,-1.18223 -1.59648,-3.25793 -1.59648,-6.22222 z m 9.06018,-1.69199 z m 0.54931,28.69386 z m -11.80608,-27.29 z m 24.55274,0.28813 h 4.24048 l 12.94003,24.67983 h -0.004 V 353.2597 h 2.59271 v 27.00187 h -4.2403 l -12.94003,-24.57809 h 0.004 v 24.57809 h -2.59289 z m 10.73851,-1.69199 z m -1.40375,28.69386 z m -11.40919,-27.29 z m 26.08811,0.28813 h 2.5933 v 27.00187 h -2.5933 z m 1.34214,-1.69199 z m 0.0304,28.69386 z m -3.56915,-27.29 z m 16.64633,25.17755 h 0.01 l 7.17443,-24.88942 h 2.80135 l -8.11491,27.00187 h -3.69116 l -8.11445,-27.00187 h 2.80133 z m 11.17554,2.11245 V 353.2597 h 14.7345 v 2.70007 H 226.9259 v 8.92863 h 11.6229 v 2.70004 h -11.6229 v 9.9731 h 12.14119 v 2.70003 z m 7.96204,-28.69386 z m 4.51531,28.69386 z m -13.72807,-27.29 z m 19.18868,27.29 V 353.2597 h 10.72259 c 2.57294,0 4.35767,0.59379 5.35915,1.77604 1.01196,1.17024 1.5205,3.23989 1.5205,6.2042 0,2.42411 -0.32045,4.13433 -0.96611,5.13067 -0.63563,0.98417 -1.67306,1.57777 -3.12178,1.79392 2.50144,0.19815 3.75215,1.81795 3.75215,4.86644 v 7.2306 h -2.59316 v -5.59253 c 0,-1.87827 -0.26423,-3.22236 -0.78818,-4.03212 -0.51317,-0.81028 -1.52516,-1.2125 -3.03502,-1.2125 h -8.25727 v 10.83715 z m 2.59286,-24.3018 v 10.76479 h 8.05376 c 1.78473,0 2.95902,-0.40805 3.51341,-1.22984 0.56428,-0.83433 0.84888,-2.48442 0.84888,-4.94479 0,-1.90818 -0.30499,-3.15622 -0.92024,-3.72629 -0.60998,-0.57609 -1.76943,-0.86387 -3.48792,-0.86387 z m 6.07104,-4.39206 z m -0.27486,28.69386 z m -10.4942,-27.29 z m 23.58663,0.28813 h 2.59333 v 27.00187 h -2.59333 z m 1.34215,-1.69199 z m 0.0305,28.69386 z m -3.56914,-27.29 z m 7.19945,0.28813 h 17.35839 v 2.70007 h -7.38261 v 24.3018 h -2.59331 v -24.3018 h -7.38246 z m 8.87748,-1.69199 z m -0.67115,28.69386 z m -8.45018,-27.29 z m 17.8822,27.29 8.32818,-27.00187 h 3.66059 l 8.32818,27.00187 h -2.6693 l -1.769,-5.76657 v 0.005 h -11.36901 v -0.005 l -1.80002,5.76657 z m 5.24176,-8.47246 v 0.013 h 9.87899 v -0.013 l -4.90622,-15.99738 h -0.01 z m 5.16055,-20.2214 z m 8.42006,28.69386 z m -19.0361,-27.29 z m 23.00201,27.29 V 353.2597 h 10.72275 c 2.57277,0 4.35765,0.59379 5.35897,1.77604 1.01198,1.17024 1.52049,3.23989 1.52049,6.2042 0,2.42411 -0.32029,4.13433 -0.96608,5.13067 -0.63549,0.98417 -1.67309,1.57777 -3.12178,1.79392 2.50157,0.19815 3.75232,1.81795 3.75232,4.86644 v 7.2306 h -2.59333 v -5.59253 c 0,-1.87827 -0.26423,-3.22236 -0.78804,-4.03212 -0.51318,-0.81028 -1.52516,-1.2125 -3.03516,-1.2125 h -8.25728 v 10.83715 z m 2.59285,-24.3018 v 10.76479 h 8.05376 c 1.78486,0 2.95916,-0.40805 3.51354,-1.22984 0.56415,-0.83433 0.8489,-2.48442 0.8489,-4.94479 0,-1.90818 -0.30514,-3.15622 -0.92023,-3.72629 -0.61015,-0.57609 -1.76959,-0.86387 -3.48807,-0.86387 z m 6.07104,-4.39206 z m -0.27487,28.69386 z m -10.49405,-27.29 z m 23.58649,0.28813 h 2.59333 v 27.00187 h -2.59333 z m 1.34215,-1.69199 z m 0.0304,28.69386 z m -3.56915,-27.29 z m 7.16934,27.29 8.32834,-27.00187 h 3.66042 l 8.32818,27.00187 h -2.6693 L 351.51446,374.495 V 374.5 H 340.1457 v -0.005 l -1.80016,5.76657 z m 5.24178,-8.47246 v 0.013 h 9.87896 v -0.013 l -4.90621,-15.99738 h -0.01 z m 5.16054,-20.2214 z m 8.42006,28.69386 z m -19.03611,-27.29 z m 33.37982,27.29 V 353.2597 h 11.60253 c 4.95702,0 7.43356,3.51634 7.43356,10.54885 v 6.24025 c 0,6.81035 -2.45107,10.21277 -7.35758,10.21277 z m 2.5927,-2.70003 h 8.65371 c 1.84558,0 3.17275,-0.5701 3.97625,-1.70423 0.81351,-1.14016 1.22012,-3.13217 1.22012,-5.98256 v -7.49468 c 0,-1.80608 -0.41679,-3.32424 -1.2507,-4.55408 -0.82387,-1.24201 -2.00835,-1.86622 -3.55897,-1.86622 h -9.04041 z m 5.5829,-25.99383 z m -10.12818,1.40386 z m 23.6376,27.29 V 353.2597 h 14.7345 v 2.70007 h -12.14134 v 8.92863 H 404.703 v 2.70004 h -11.62292 v 9.9731 h 12.14134 v 2.70003 z m 7.96203,-28.69386 z m 4.51517,28.69386 z m -13.72807,-27.29 z m 29.80982,0.28813 h 2.5933 v 27.00187 h -2.5933 z m 1.34215,-1.69199 z m 0.0306,28.69386 z m -3.56918,-27.29 z m 9.03007,0.28813 h 4.24045 l 12.94002,24.67983 h -0.004 V 353.2597 h 2.59272 v 27.00187 h -4.24031 l -12.94002,-24.57809 h 0.004 v 24.57809 h -2.59286 z m 10.7385,-1.69199 z m -1.40376,28.69386 z m -11.40917,-27.29 z m 25.87437,27.29 V 353.2597 h 14.03307 v 2.70007 h -11.43976 v 9.21657 h 11.10419 v 2.70041 h -11.10419 v 12.38482 z m 16.01127,-8.43691 v -10.1466 c 0,-3.20432 0.5442,-5.45405 1.63727,-6.75621 1.10339,-1.302 3.03005,-1.95028 5.78597,-1.95028 h 3.20302 c 2.96964,0 4.95745,0.69586 5.95924,2.09425 1.00147,1.37983 1.50489,3.66013 1.50489,6.8404 v 9.55249 c 0,3.39641 -0.54944,5.76641 -1.65223,7.10466 -1.10339,1.32606 -2.95961,1.98598 -5.56251,1.98598 h -3.41164 c -2.90849,-0.013 -4.88102,-0.66595 -5.91338,-1.96795 -1.0319,-1.3142 -1.55062,-3.56445 -1.55063,-6.75674 z m 2.59317,-9.92444 v 9.66673 c 0,2.40608 0.30498,4.05016 0.91005,4.94411 0.61523,0.89411 1.87617,1.33825 3.78288,1.33825 h 3.58954 c 1.74906,0 2.95902,-0.43213 3.6252,-1.30217 0.66605,-0.88193 0.99624,-2.4963 0.99624,-4.8424 v -9.57034 c 0,-2.67652 -0.32509,-4.42232 -0.98093,-5.23259 -0.65601,-0.82213 -1.89655,-1.22982 -3.712,-1.22982 h -3.44206 c -1.89655,0 -3.16764,0.42575 -3.81345,1.28413 -0.63502,0.85784 -0.95548,2.50779 -0.95547,4.9441 z m 6.80273,-10.33251 z m 11.92328,28.69386 V 353.2597 h 10.72261 c 2.57294,0 4.35766,0.59379 5.35913,1.77604 1.01197,1.17024 1.52049,3.23989 1.52049,6.2042 0,2.42411 -0.32029,4.13433 -0.9661,5.13067 -0.63562,0.98417 -1.67307,1.57777 -3.12178,1.79392 2.50145,0.19815 3.7523,1.81795 3.7523,4.86644 v 7.2306 h -2.5933 v -5.59253 c 0,-1.87827 -0.26423,-3.22236 -0.78804,-4.03212 -0.51334,-0.81028 -1.52529,-1.2125 -3.03516,-1.2125 h -8.25729 v 10.83715 z m 2.59286,-24.3018 v 10.76479 h 8.05377 c 1.78473,0 2.95899,-0.40805 3.51355,-1.22984 0.56412,-0.83433 0.84875,-2.48442 0.84875,-4.94479 0,-1.90818 -0.305,-3.15622 -0.92024,-3.72629 -0.61,-0.57609 -1.76945,-0.86387 -3.48793,-0.86387 z m 6.07105,-4.39206 z m -0.27489,28.69386 z m -10.49419,-27.29 z m 23.52552,0.28813 h 4.48458 l 7.97749,23.10154 v 0 l 8.03846,-23.10154 h 4.4846 v 27.00187 h -2.59308 v -24.88992 h 0.0163 l -8.61805,24.88992 h -2.5933 l -8.61803,-24.88992 h 0.0163 v 24.88992 h -2.5933 z m 27.5122,27.00187 8.32819,-27.00187 h 3.66058 l 8.32818,27.00187 h -2.66931 L 551.8211,374.495 v 0.005 h -11.3688 v -0.005 l -1.80015,5.76657 z m 5.24177,-8.47246 v 0.013 h 9.87895 v -0.013 l -4.90619,-15.99738 h -0.01 z m 5.16055,-20.2214 z m 8.42006,28.69386 z m -19.0361,-27.29 z m 8.11461,-2.85639 4.55563,-4.16406 1.1797,1.94388 -4.89632,3.67271 z m 2.50143,1.45253 z m 10.52477,1.69199 h 17.35838 v 2.70007 h -7.3826 v 24.3018 h -2.59331 v -24.3018 h -7.38247 z m 8.87763,-1.69199 z m -0.67129,28.69386 z m -8.45018,-27.29 z m 19.86491,0.28813 h 2.59333 v 27.00187 h -2.59333 z m 1.34215,-1.69199 z m 0.0306,28.69386 z m -3.56915,-27.29 z m 24.06969,18.28956 h 2.59331 v 2.47788 c 0,2.4181 -0.55453,4.15841 -1.66797,5.22641 -1.11359,1.05595 -3.16255,1.58393 -6.14208,1.58393 h -3.74197 c -2.03892,0 -3.67588,-0.70203 -4.92195,-2.11192 -1.24053,-1.40442 -1.86071,-3.61254 -1.86071,-6.61277 v -10.23628 c 0,-2.70659 0.56968,-4.81834 1.71338,-6.33047 1.1542,-1.52432 3.71695,-2.28634 7.68761,-2.28634 h 2.20664 c 2.34422,0 4.01174,0.5761 4.99313,1.72228 0.99128,1.13413 1.48963,3.07786 1.48963,5.83203 v 1.15819 h -2.59288 v -0.86388 c 0,-2.08219 -0.30003,-3.46256 -0.89521,-4.12834 -0.59471,-0.67797 -1.65733,-1.01986 -3.18756,-1.01986 h -1.83585 c -2.95901,0 -4.86572,0.42575 -5.71973,1.28413 -0.84409,0.84582 -1.266,2.26173 -1.266,4.24206 v 8.34068 c 0,3.45001 0.31535,5.70025 0.94063,6.7442 0.63562,1.04427 1.89654,1.56625 3.78289,1.56625 h 3.11666 c 2.11012,0 3.51851,-0.2938 4.23522,-0.88192 0.7167,-0.58813 1.07281,-1.82414 1.07281,-3.71426 z m -6.34517,-19.69342 z m 0,28.69386 z m 9.73163,0 8.32817,-27.00187 h 3.66059 l 8.32819,27.00187 H 619.398 l -1.76899,-5.76657 v 0.005 h -11.36887 v -0.005 l -1.80017,5.76657 z m 5.24178,-8.47246 v 0.013 h 9.87896 v -0.013 l -4.90622,-15.99738 h -0.01 z m 5.16055,-20.2214 z m 8.42004,28.69386 z m -19.03611,-27.29 z m 31.21313,0.28813 h 3.04055 l 6.7062,12.65458 h -0.004 l 6.66589,-12.65458 h 3.08596 l -8.57202,15.7151 v 11.28677 h -2.59331 V 368.9748 Z m 10.43334,-1.69199 z m -10.21977,1.40386 z m 33.49618,18.8651 v 0 0 c 0.01,2.74252 0.28477,4.42869 0.81832,5.06459 0.53913,0.63019 2.19645,0.94805 4.98295,0.94805 2.67455,0 4.37265,-0.2938 5.09954,-0.88192 0.72735,-0.60014 1.08797,-2.09422 1.08797,-4.49446 v -0.68382 c 0,-0.81028 -0.15758,-1.61455 -0.47797,-2.41226 -0.30499,-0.80428 -1.10324,-1.26043 -2.38468,-1.37435 l -1.29613,-0.12564 -5.22185,-0.42026 c -1.7083,-0.14376 -3.00487,-0.68982 -3.88943,-1.6379 -0.87468,-0.96028 -1.31188,-2.68253 -1.31188,-5.16626 0,-2.7186 0.48305,-4.67453 1.44405,-5.8688 0.9763,-1.20578 3.38092,-1.81195 7.23004,-1.81195 2.91825,0 4.9825,0.44414 6.19755,1.33811 1.2104,0.87589 1.81545,2.55604 1.81545,5.02846 v 1.22982 h -2.5933 v 0 0 c 0,-2.19594 -0.31521,-3.55825 -0.95082,-4.08624 -0.63039,-0.54001 -2.15058,-0.80973 -4.57558,-0.80973 -2.57279,0 -4.21017,0.26372 -4.91671,0.79169 -0.70696,0.52798 -1.05752,1.73429 -1.05752,3.6246 0,1.97395 0.24385,3.2098 0.73199,3.71426 0.48307,0.4917 1.2203,0.77401 2.20679,0.84582 l 6.7368,0.52798 c 3.26909,0.27009 4.9065,2.48425 4.9065,6.64831 v 0.73811 c 0,3.03631 -0.50344,5.13053 -1.50521,6.28272 -1.00657,1.13413 -3.32021,1.70387 -6.95007,1.70387 -4.00169,0 -6.45726,-0.60582 -7.36268,-1.82414 -0.90481,-1.22984 -1.35728,-2.89799 -1.35728,-5.01026 0,-0.94825 0,-1.57191 0,-1.87828 z m 6.07075,-20.26896 z m -0.88458,28.69386 z m 12.5024,-27.00187 h 2.59315 v 27.00187 h -2.59315 z m 1.34199,-1.69199 z m 0.0307,28.69386 z m -3.56915,-27.29 z m 10.64707,18.8651 v 0 0 c 0.008,2.74252 0.2846,4.42869 0.81818,5.06459 0.53908,0.63019 2.19644,0.94805 4.98307,0.94805 2.6744,0 4.37251,-0.2938 5.09942,-0.88192 0.72732,-0.60014 1.08809,-2.09422 1.08809,-4.49446 v -0.68382 c 0,-0.81028 -0.15756,-1.61455 -0.47795,-2.41226 -0.30515,-0.80428 -1.10339,-1.26043 -2.38468,-1.37435 l -1.29628,-0.12564 -5.2217,-0.42026 c -1.7083,-0.14376 -3.00503,-0.68982 -3.8896,-1.6379 -0.87468,-0.96028 -1.31185,-2.68253 -1.31185,-5.16626 0,-2.7186 0.48303,-4.67453 1.44404,-5.8688 0.9763,-1.20578 3.38092,-1.81195 7.23005,-1.81195 2.91824,0 4.98263,0.44414 6.19769,1.33811 1.21038,0.87589 1.8153,2.55604 1.8153,5.02846 v 1.22982 h -2.59316 v 0 0 c 0,-2.19594 -0.31534,-3.55825 -0.95081,-4.08624 -0.63054,-0.54001 -2.15059,-0.80973 -4.57558,-0.80973 -2.57294,0 -4.21034,0.26372 -4.91685,0.79169 -0.70699,0.52798 -1.05738,1.73429 -1.05738,3.6246 0,1.97395 0.24384,3.2098 0.73199,3.71426 0.48306,0.4917 1.22015,0.77401 2.20663,0.84582 l 6.73679,0.52798 c 3.26926,0.27009 4.90652,2.48425 4.90652,6.64831 v 0.73811 c 0,3.03631 -0.50344,5.13053 -1.5052,6.28272 -1.00643,1.13413 -3.32024,1.70387 -6.95008,1.70387 -4.00155,0 -6.45728,-0.60582 -7.36254,-1.82414 -0.90495,-1.22984 -1.35741,-2.89799 -1.35741,-5.01026 0,-0.94825 0,-1.57191 0,-1.87828 z m 6.0706,-20.26896 z m -0.88458,28.69386 z m 10.5498,-27.00187 h 17.35839 v 2.70007 h -7.38247 v 24.3018 h -2.5933 v -24.3018 h -7.38261 z m 8.87763,-1.69199 z m -0.6713,28.69386 z m -8.45017,-27.29 z m 18.91934,27.29 V 353.2597 h 14.7345 v 2.70007 h -12.14133 v 8.92863 h 11.62291 v 2.70004 h -11.62291 v 9.9731 h 12.14133 v 2.70003 z m 7.96203,-28.69386 z m 4.51519,28.69386 z m -13.7281,-27.29 z m 19.21881,0.28813 h 4.48476 l 7.97732,23.10154 v 0 l 8.03847,-23.10154 h 4.48476 v 27.00187 h -2.59333 v -24.88992 h 0.0163 l -8.61804,24.88992 H 756.175 l -8.61805,-24.88992 h 0.0163 v 24.88992 h -2.5933 z m 27.51223,27.00187 8.32833,-27.00187 h 3.66042 l 8.32834,27.00187 h -2.6693 l -1.76914,-5.76657 v 0.005 h -11.36889 v -0.005 l -1.79999,5.76657 z m 5.24177,-8.47246 v 0.013 h 9.87895 v -0.013 l -4.90604,-15.99738 h -0.01 z m 5.16069,-20.2214 z m 8.41992,28.69386 z m -19.03611,-27.29 z m 24.58842,18.8651 v 0 0 c 0.01,2.74252 0.28477,4.42869 0.81832,5.06459 0.53913,0.63019 2.19646,0.94805 4.98295,0.94805 2.67455,0 4.37265,-0.2938 5.09955,-0.88192 0.72736,-0.60014 1.08796,-2.09422 1.08796,-4.49446 v -0.68382 c 0,-0.81028 -0.15758,-1.61455 -0.47797,-2.41226 -0.30499,-0.80428 -1.10324,-1.26043 -2.38467,-1.37435 l -1.29614,-0.12564 -5.22185,-0.42026 c -1.7083,-0.14376 -3.00487,-0.68982 -3.88943,-1.6379 -0.87468,-0.96028 -1.31188,-2.68253 -1.31188,-5.16626 0,-2.7186 0.48305,-4.67453 1.44405,-5.8688 0.9763,-1.20578 3.38093,-1.81195 7.23004,-1.81195 2.91825,0 4.9825,0.44414 6.19755,1.33811 1.2104,0.87589 1.81545,2.55604 1.81545,5.02846 v 1.22982 h -2.5933 v 0 0 c 0,-2.19594 -0.31521,-3.55825 -0.95082,-4.08624 -0.63039,-0.54001 -2.15058,-0.80973 -4.57558,-0.80973 -2.57279,0 -4.21017,0.26372 -4.91671,0.79169 -0.70696,0.52798 -1.05752,1.73429 -1.05752,3.6246 0,1.97395 0.24385,3.2098 0.73199,3.71426 0.48307,0.4917 1.2203,0.77401 2.20679,0.84582 l 6.7368,0.52798 c 3.26909,0.27009 4.9065,2.48425 4.9065,6.64831 v 0.73811 c 0,3.03631 -0.50344,5.13053 -1.50521,6.28272 -1.00657,1.13413 -3.32021,1.70387 -6.95007,1.70387 -4.00171,0 -6.45726,-0.60582 -7.36268,-1.82414 -0.90481,-1.22984 -1.35728,-2.89799 -1.35728,-5.01026 0,-0.94825 0,-1.57191 0,-1.87828 z m 6.07075,-20.26896 z m -0.88458,28.69386 z" />
  <path
     id="path133"
     style="fill:#ffffff;fill-opacity:0;fill-rule:evenodd;stroke-width:1.62818"
     d="M 810.04428,322.72932 H 616.7034 C 691.07956,261.89457 756.30758,185.40648 810.04428,89.250046 Z" />
  <path
     id="path135"
     style="fill:#ffffff;fill-rule:evenodd;stroke-width:1.62818"
     d="m 786.48114,134.1686 c -5.59773,-7.07866 -13.29464,-13.27275 -23.09011,-18.58159 -9.79591,-5.30899 -20.15163,-8.7498 -31.06743,-10.32329 -15.95345,-2.5559 -31.20666,-2.01519 -45.76117,1.62249 -14.5539,3.6375 -27.14846,9.97892 -37.78384,19.02375 -4.75842,4.12923 -8.60695,8.79916 -11.54543,14.01001 -2.93847,5.2108 -4.82767,10.56862 -5.66773,16.07432 -0.83945,5.50569 -0.55965,11.01137 0.84006,16.51704 1.39895,5.50569 3.91837,10.61784 7.55632,15.3371 7.27726,10.22463 17.8428,18.23756 31.69707,24.0381 13.85428,5.80055 28.75784,8.50412 44.71127,8.11057 14.55391,0.78676 26.309,5.40751 35.26577,13.86246 4.75769,4.52244 7.3465,10.07728 7.76676,16.66458 0.41979,6.5873 -1.32956,12.33866 -5.24807,17.25411 -4.47801,5.50567 -10.42556,9.73324 -17.84265,12.68268 -7.41708,2.94946 -15.46381,4.22756 -24.13999,3.83438 -8.95601,-0.19663 -17.21256,-2.21223 -24.76948,-6.04658 -7.55706,-3.83402 -12.87513,-8.60265 -15.95343,-14.30486 -1.39971,-1.57297 -2.23903,-3.34264 -2.51884,-5.30863 -0.27983,-1.96653 -0.56024,-3.93271 -0.84005,-5.89924 -0.27982,-1.96619 -0.76947,-3.83401 -1.46895,-5.60402 -0.70007,-1.76949 -2.30959,-3.34248 -4.8284,-4.71893 -2.7985,-1.57299 -6.0174,-2.55626 -9.65611,-2.94944 -3.63795,-0.39322 -7.13664,0 -10.49553,1.17977 -6.15738,1.96616 -9.6561,5.50569 -10.49541,10.6178 0,4.91599 0.83931,9.73325 2.51882,14.45273 1.39955,5.11212 4.12821,10.07725 8.18656,14.89437 4.05822,4.81727 9.02646,9.19271 14.90417,13.12507 5.87754,3.93254 12.31472,7.27515 19.31156,10.02793 6.99744,2.75292 14.1341,4.52292 21.41135,5.30916 16.7929,1.96653 32.46652,1.03244 47.02027,-2.80194 14.55392,-3.83435 26.72883,-10.47048 36.52475,-19.90867 4.47801,-4.12941 7.97673,-8.84834 10.49554,-14.15752 2.51943,-5.30899 3.98837,-10.76515 4.40877,-16.36918 0.41965,-5.60384 -0.20998,-11.15871 -1.88934,-16.66439 -1.67937,-5.50567 -4.33804,-10.52 -7.97673,-15.04241 -7.83674,-10.02793 -18.40227,-17.64733 -31.69692,-22.85813 -13.29477,-5.21085 -27.91851,-7.61923 -43.87197,-7.22601 -12.03508,-0.78677 -22.25079,-4.3259 -30.64717,-10.61782 -6.15737,-4.52277 -9.86592,-10.17597 -11.12503,-16.95926 -1.25972,-6.78381 0.07,-13.02705 3.98835,-18.72944 3.91837,-5.70221 9.79534,-10.17544 17.63222,-13.41973 7.83674,-3.24431 16.23326,-4.76812 25.18988,-4.5716 8.6762,0.19662 16.79275,2.11369 24.34982,5.75155 7.55693,3.63732 13.01421,8.30761 16.3731,14.00982 0.55962,2.75292 1.88918,5.30863 3.98837,7.66837 2.09902,2.35971 5.10747,4.03105 9.02599,5.0143 3.63856,0.9829 7.27711,1.17942 10.91582,0.58972 3.63854,-0.58972 6.71701,-1.96619 9.23582,-4.12923 2.51943,-1.96616 3.98837,-3.98187 4.40863,-6.04621 0.41965,-2.06489 0.27981,-4.17857 -0.42026,-6.34163 -0.69962,-2.16268 -1.74877,-4.27672 -3.14847,-6.34106 -1.39954,-2.06489 -2.65865,-3.9819 -3.77853,-5.75137 z" />
</svg>
