<svg xmlns="http://www.w3.org/2000/svg" xmlns:xlink="http://www.w3.org/1999/xlink" viewBox="0 0 446.73 184.48"><defs><style>.cls-1,.cls-5{fill:none;}.cls-2{fill:#f8d8cd;}.cls-3{fill:#ae122a;}.cls-4{clip-path:url(#clip-path);}.cls-5{stroke:#f8d8cd;stroke-linecap:round;stroke-linejoin:round;stroke-width:6px;}</style><clipPath id="clip-path"><circle class="cls-1" cx="77.25" cy="77.25" r="67.75"/></clipPath></defs><title>Recurso 4</title><g id="Capa_2" data-name="Capa 2"><g id="Capa_1-2" data-name="Capa 1"><circle class="cls-2" cx="77.25" cy="77.25" r="77.25"/><circle class="cls-3" cx="77.25" cy="77.25" r="67.75"/><path class="cls-3" d="M190.29,62.15l-8.1-2.86a12.75,12.75,0,0,1-6.41-4.43,12.72,12.72,0,0,1-1.92-7.34q0-6.64,3.24-8.89t11.39-2.24A48.8,48.8,0,0,1,201.71,38L201.13,44q-5.07-.17-12.59-.17a11.58,11.58,0,0,0-4.66.61q-1.17.61-1.17,3.06a3.92,3.92,0,0,0,.87,2.86,8.86,8.86,0,0,0,3.32,1.69l7.63,2.62q4.66,1.63,6.59,4.46a12.86,12.86,0,0,1,1.92,7.37q0,6.76-3.26,9.18t-11.66,2.42a65.09,65.09,0,0,1-13.81-1.52l.52-6.41q12.41.29,13.29.29,3.56,0,4.75-.76t1.2-3.15a4.1,4.1,0,0,0-.82-2.89A7.41,7.41,0,0,0,190.29,62.15Z"/><path class="cls-3" d="M218.21,77.36h-8.86V37.14h8.86Z"/><path class="cls-3" d="M241.23,62.15l-8.1-2.86a12.75,12.75,0,0,1-6.41-4.43,12.72,12.72,0,0,1-1.92-7.34q0-6.64,3.24-8.89t11.39-2.24A48.8,48.8,0,0,1,252.65,38L252.07,44q-5.07-.17-12.59-.17a11.58,11.58,0,0,0-4.66.61q-1.17.61-1.17,3.06a3.92,3.92,0,0,0,.87,2.86,8.86,8.86,0,0,0,3.32,1.69l7.63,2.62q4.66,1.63,6.59,4.46A12.86,12.86,0,0,1,254,66.52q0,6.76-3.26,9.18t-11.66,2.42a65.09,65.09,0,0,1-13.81-1.52l.52-6.41q12.41.29,13.29.29,3.56,0,4.75-.76t1.2-3.15a4.1,4.1,0,0,0-.82-2.89A7.41,7.41,0,0,0,241.23,62.15Z"/><path class="cls-3" d="M290.18,44.37h-12v33h-8.92v-33h-12V37.14h32.93Z"/><path class="cls-3" d="M322.06,70.42l.41,6.53q-5.48.58-18.65.58a9.13,9.13,0,0,1-6.41-2.19A7.79,7.79,0,0,1,295,69.43V45.07a7.79,7.79,0,0,1,2.45-5.92A9.13,9.13,0,0,1,303.82,37q13.17,0,18.65.58l-.41,6.59H306.62a2.73,2.73,0,0,0-2.1.7,3.31,3.31,0,0,0-.64,2.27v6.12h16v6.41h-16v7.75a3.41,3.41,0,0,0,.64,2.33,2.73,2.73,0,0,0,2.1.7Z"/><path class="cls-3" d="M361.17,37.14h8.57q3.21,0,3.32,3.32l1.57,36.89h-8.39L364.9,44.08h-1L357.85,69a3.29,3.29,0,0,1-3.61,2.86h-5.83A3.29,3.29,0,0,1,344.79,69l-6.12-24.89h-1l-1.17,33.28h-8.39l1.46-36.89q.17-3.32,3.32-3.32h8.57A3.27,3.27,0,0,1,345,40l4.9,20q.47,1.92,1,5.65h.76q.06-.29.44-2.39t.61-3.26l4.84-20A3.39,3.39,0,0,1,361.17,37.14Z"/><path class="cls-3" d="M403.78,66.81H390L387,77.36H378l11.6-37.88a2.78,2.78,0,0,1,1.11-1.69,3.27,3.27,0,0,1,2-.64H401a2.86,2.86,0,0,1,3.09,2.33l11.6,37.88h-9Zm-1.92-6.88-3.38-12.3q-.7-2.91-.82-3.79h-1.57q-.12.58-.41,1.87t-.47,1.92l-3.38,12.3Z"/><path class="cls-3" d="M203.11,122.46l.76,6.59A43.87,43.87,0,0,1,191,130.68q-9.33,0-13.11-4.66t-3.79-16.14q0-11.48,3.79-16.14T191,89.07a49.39,49.39,0,0,1,12.06,1.34l-.76,6.64q-4.72-.29-11.31-.29-4.37,0-6,2.77t-1.6,10.35q0,7.58,1.6,10.35t6,2.77A102.28,102.28,0,0,0,203.11,122.46Z"/><path class="cls-3" d="M211.42,93.47Q215.18,89,224.85,89t13.46,4.46q3.79,4.46,3.79,16.41t-3.79,16.41q-3.79,4.46-13.46,4.46t-13.43-4.46q-3.76-4.46-3.76-16.41T211.42,93.47ZM231.06,99q-1.66-2.85-6.21-2.86T218.64,99Q217,101.89,217,109.88t1.66,10.84q1.66,2.86,6.21,2.86t6.21-2.86q1.66-2.85,1.66-10.84T231.06,99Z"/><path class="cls-3" d="M281.15,89.77h8.57q3.21,0,3.32,3.32L294.62,130h-8.39L284.88,96.7h-1l-6.06,24.89a3.29,3.29,0,0,1-3.61,2.86h-5.83a3.29,3.29,0,0,1-3.61-2.86L258.65,96.7h-1L256.5,130h-8.39l1.46-36.89q.17-3.32,3.32-3.32h8.57a3.27,3.27,0,0,1,3.5,2.86l4.9,20q.47,1.92,1,5.65h.76q.06-.29.44-2.39t.61-3.26l4.84-20A3.39,3.39,0,0,1,281.15,89.77Z"/><path class="cls-3" d="M328.71,123l.41,6.53q-5.48.58-18.65.58a9.13,9.13,0,0,1-6.41-2.19,7.79,7.79,0,0,1-2.45-5.92V97.69a7.79,7.79,0,0,1,2.45-5.92,9.13,9.13,0,0,1,6.41-2.19q13.17,0,18.65.58l-.41,6.59H313.27a2.73,2.73,0,0,0-2.1.7,3.31,3.31,0,0,0-.64,2.27v6.12h16v6.41h-16V120a3.41,3.41,0,0,0,.64,2.33,2.73,2.73,0,0,0,2.1.7Z"/><path class="cls-3" d="M335.53,130V89.77q8.27-.53,15.62-.52,9.62,0,13.38,4.43t3.76,16.2q0,11.77-3.76,16.2t-13.38,4.43Q343.81,130.51,335.53,130Zm8.86-33.75v27.22l3.24,0,3.53,0q4.49,0,6.15-2.86T359,109.88q0-7.93-1.66-10.81t-6.15-2.88Z"/><path class="cls-3" d="M377.58,93.47Q381.34,89,391,89t13.46,4.46q3.79,4.46,3.79,16.41t-3.79,16.41q-3.79,4.46-13.46,4.46t-13.43-4.46q-3.76-4.46-3.76-16.41T377.58,93.47ZM397.22,99q-1.66-2.85-6.21-2.86T384.81,99q-1.66,2.86-1.66,10.84t1.66,10.84q1.66,2.86,6.21,2.86t6.21-2.86q1.66-2.85,1.66-10.84T397.22,99Z"/><path class="cls-3" d="M446.73,130h-9.38l-3-12.3a5.1,5.1,0,0,0-1.54-2.65,4.52,4.52,0,0,0-2.77-.73l-6.24-.06V130H415V89.77q5.42-.53,15.33-.52,8.1,0,11.48,2.56t3.38,9.33a11.81,11.81,0,0,1-1.78,6.94q-1.78,2.51-5.92,3v.29q4.6,1,5.71,6.06Zm-23-22.56h6.41q3.5,0,4.78-1.19t1.28-4.52q0-3.32-1.25-4.49t-4.81-1.17l-6.41.06Z"/><g class="cls-4"><path class="cls-5" d="M61.85,58.46l14.23,29.6a6.49,6.49,0,0,1,.28,4.71L72.91,103.7a5.35,5.35,0,0,0,.32,4.06l30.27,62.08s2.89,7.51-4.19,10.78-10.92-3.8-10.92-3.8L60.8,113.5a5.35,5.35,0,0,0-2.88-2.88l-10.56-4.47a6.49,6.49,0,0,1-3.4-3.27l-13.28-30m10.39-4.79L55,98.27m-3.55-35L65.4,93.48"/><path class="cls-5" d="M118.89,87.53c4-5.61,4.67-13.82.47-22.91-6-13-19.81-22.93-29.2-18.6s-10.82,21.25-4.8,34.29C89.55,89.4,96.25,94.2,103.1,94.82a4.52,4.52,0,0,1,3.79,2.71l25.18,59.18s3.84,7.07,10.92,3.81,4.19-10.78,4.19-10.78L118.49,92.17A4.52,4.52,0,0,1,118.89,87.53Z"/></g></g></g></svg>