<svg xmlns="http://www.w3.org/2000/svg" viewBox="0 0 375.56 185.5"><defs><style>.cls-1{fill:#ae122a;}.cls-2{fill:none;stroke:#f8d8cd;stroke-linecap:round;stroke-linejoin:round;stroke-width:4px;}</style></defs><title>Recurso 6</title><g id="Capa_2" data-name="Capa 2"><g id="Capa_1-2" data-name="Capa 1"><circle class="cls-1" cx="92.75" cy="92.75" r="92.75"/><path class="cls-2" d="M100.46,163.86A72.53,72.53,0,0,1,84,163.74"/><path class="cls-2" d="M147.44,46.67a71.52,71.52,0,0,1-4.5,97"/><path class="cls-2" d="M66.44,26.23A71.92,71.92,0,0,1,108.8,23"/><path class="cls-2" d="M42.92,144.05a71.53,71.53,0,0,1-8.1-93.25"/><path class="cls-1" d="M205.09,85.24V73a49.2,49.2,0,0,0,8,1.79,57.55,57.55,0,0,0,8.43.69q4.26,0,5.92-.91a2.86,2.86,0,0,0,1.67-2.63,2.71,2.71,0,0,0-.45-1.6A3.8,3.8,0,0,0,227,69.18a21.6,21.6,0,0,0-3.55-1l-4.74-1.06q-7.76-1.68-11.42-5.39a13.42,13.42,0,0,1-3.66-9.85q0-8,6.13-12.21T228,35.39a54.54,54.54,0,0,1,13.56,1.54V49.19a37.67,37.67,0,0,0-6-1.22,52.09,52.09,0,0,0-6.88-.46q-5.43,0-7.57,1T219,51.15a2.51,2.51,0,0,0,.38,1.42,3.14,3.14,0,0,0,1.36,1,16.28,16.28,0,0,0,2.87.89l4.74,1.06q8.48,1.82,12.31,5.58A13.22,13.22,0,0,1,244.47,71a14.45,14.45,0,0,1-2.76,8.82,17.36,17.36,0,0,1-7.95,5.75,34,34,0,0,1-12.29,2A54.52,54.52,0,0,1,205.09,85.24Z"/><path class="cls-1" d="M250.41,86.89V36.08H266V86.89Z"/><path class="cls-1" d="M273.41,85.24V73a49.2,49.2,0,0,0,8,1.79,57.55,57.55,0,0,0,8.43.69q4.26,0,5.92-.91a2.86,2.86,0,0,0,1.67-2.63,2.71,2.71,0,0,0-.45-1.6,3.8,3.8,0,0,0-1.67-1.15,21.6,21.6,0,0,0-3.55-1L287,67.08q-7.76-1.68-11.42-5.39a13.42,13.42,0,0,1-3.66-9.85q0-8,6.13-12.21t18.25-4.24a54.54,54.54,0,0,1,13.56,1.54V49.19a37.67,37.67,0,0,0-6-1.22,52.09,52.09,0,0,0-6.88-.46q-5.43,0-7.57,1t-2.15,2.68a2.51,2.51,0,0,0,.38,1.42,3.14,3.14,0,0,0,1.36,1,16.28,16.28,0,0,0,2.87.89l4.74,1.06q8.48,1.82,12.31,5.58A13.22,13.22,0,0,1,312.79,71,14.45,14.45,0,0,1,310,79.82a17.36,17.36,0,0,1-7.95,5.75,34,34,0,0,1-12.29,2A54.52,54.52,0,0,1,273.41,85.24Z"/><path class="cls-1" d="M212.25,138.36q-7.81-6.51-7.81-19.45A26.64,26.64,0,0,1,208,104.78a22.8,22.8,0,0,1,10.61-9q7-3.11,17.18-3.11a57.75,57.75,0,0,1,11.6,1.1v12.46a57,57,0,0,0-10.27-1q-8.58,0-12.5,3.31t-3.91,10.18q0,6.9,3.79,10.2t12.1,3.3a48.45,48.45,0,0,0,10.78-1.34v12.5a53,53,0,0,1-12.05,1.44Q220.06,144.87,212.25,138.36Z"/><path class="cls-1" d="M263.78,141.81a21.92,21.92,0,0,1-9.6-8.91,27.9,27.9,0,0,1-3.37-14.13,28,28,0,0,1,3.35-14.13,21.82,21.82,0,0,1,9.58-8.91,37.14,37.14,0,0,1,29.54,0,21.88,21.88,0,0,1,9.6,8.94,28,28,0,0,1,3.35,14.08,27.86,27.86,0,0,1-3.36,14.08,22,22,0,0,1-9.61,8.94,37,37,0,0,1-29.48,0Zm23.55-12.6q3-3.4,3-10.16,0-7.07-3-10.59t-8.77-3.52q-5.73,0-8.77,3.36t-3,10.2q0,7.21,3,10.66t8.82,3.45Q284.33,132.61,287.34,129.21Z"/><path class="cls-1" d="M356.54,93.37h19v50.81H361V113l-10.3,23.66H338l-10.33-22.42v30H313.14V93.37h19l12.46,27.81Z"/><path class="cls-2" d="M82.71,37.5l.5,31.77a6.28,6.28,0,0,1-1.66,4.25l-7.46,8.2a5.18,5.18,0,0,0-1.36,3.7l1.43,66.8s-.5,7.77-8.05,7.77-8.05-7.77-8.05-7.77l1.43-66.8a5.18,5.18,0,0,0-1.36-3.7l-7.46-8.2A6.28,6.28,0,0,1,49,69.27l.5-31.77m11.07,0v32.2M71.64,37.5v32.2"/><path class="cls-2" d="M128.3,85.62c5.77-3.32,9.7-10.25,9.7-19.93,0-13.9-8.11-28.18-18.11-28.18s-18.11,14.28-18.11,28.18c0,9.68,3.93,16.62,9.7,19.93a4.38,4.38,0,0,1,2.23,3.92l-1.87,62.19s.5,7.77,8.05,7.77,8.05-7.77,8.05-7.77l-1.87-62.19A4.38,4.38,0,0,1,128.3,85.62Z"/></g></g></svg>