<svg xmlns="http://www.w3.org/2000/svg" viewBox="0 0 281 185.5"><defs><style>.cls-1{fill:#ae122a;}.cls-2,.cls-3{fill:none;stroke-width:4px;}.cls-2{stroke:#ae122a;stroke-miterlimit:10;}.cls-3{stroke:#f8d8cd;stroke-linecap:round;stroke-linejoin:round;}.cls-4{fill:#f8d8cd;}</style></defs><title>logo_comedor_02</title><g id="Capa_2" data-name="Capa 2"><g id="Capa_1-2" data-name="Capa 1"><circle class="cls-1" cx="138.75" cy="92.75" r="92.75"/><path class="cls-2" d="M35.71,31.5l.5,31.77a6.28,6.28,0,0,1-1.66,4.25l-7.46,8.2a5.18,5.18,0,0,0-1.36,3.7l1.43,66.8s-.5,7.77-8.05,7.77-8.05-7.77-8.05-7.77l1.43-66.8a5.18,5.18,0,0,0-1.36-3.7l-7.46-8.2A6.28,6.28,0,0,1,2,63.27L2.5,31.5m11.07,0v32.2M24.64,31.5v32.2"/><path class="cls-2" d="M269.3,79.87c5.77-3.32,9.7-10.25,9.7-19.93,0-13.9-8.11-28.18-18.11-28.18S242.77,46,242.77,59.93c0,9.68,3.93,16.62,9.7,19.93a4.38,4.38,0,0,1,2.23,3.92L252.84,146s.5,7.77,8.05,7.77,8.05-7.77,8.05-7.77l-1.87-62.19A4.38,4.38,0,0,1,269.3,79.87Z"/><path class="cls-3" d="M146.46,163.86a72.53,72.53,0,0,1-16.45-.12"/><path class="cls-3" d="M193.44,46.67a71.52,71.52,0,0,1-4.5,97"/><path class="cls-3" d="M112.44,26.23A71.92,71.92,0,0,1,154.8,23"/><path class="cls-3" d="M88.92,144.05a71.53,71.53,0,0,1-8.1-93.25"/><path class="cls-4" d="M109.1,84.63V77.35a29.18,29.18,0,0,0,4.74,1.06,34.14,34.14,0,0,0,5,.41,8,8,0,0,0,3.51-.54,1.7,1.7,0,0,0,1-1.56,1.61,1.61,0,0,0-.26-.95,2.27,2.27,0,0,0-1-.68,12.94,12.94,0,0,0-2.11-.61l-2.81-.63a13.31,13.31,0,0,1-6.78-3.2,8,8,0,0,1-2.17-5.85,8.27,8.27,0,0,1,3.64-7.24Q115.5,55,122.69,55a32.38,32.38,0,0,1,8,.92v7.27a22.37,22.37,0,0,0-3.54-.72,30.93,30.93,0,0,0-4.09-.28,12.23,12.23,0,0,0-4.49.57q-1.27.57-1.27,1.59a1.49,1.49,0,0,0,.22.85,1.87,1.87,0,0,0,.81.6,9.7,9.7,0,0,0,1.7.53l2.81.63q5,1.08,7.31,3.31a7.85,7.85,0,0,1,2.27,5.86,8.57,8.57,0,0,1-1.64,5.24,10.31,10.31,0,0,1-4.72,3.41A20.19,20.19,0,0,1,118.82,86,32.34,32.34,0,0,1,109.1,84.63Z"/><path class="cls-4" d="M136,85.61V55.45h9.25V85.61Z"/><path class="cls-4" d="M149.65,84.63V77.35a29.18,29.18,0,0,0,4.74,1.06,34.14,34.14,0,0,0,5,.41,8,8,0,0,0,3.51-.54,1.7,1.7,0,0,0,1-1.56,1.61,1.61,0,0,0-.26-.95,2.27,2.27,0,0,0-1-.68,12.94,12.94,0,0,0-2.11-.61l-2.81-.63a13.31,13.31,0,0,1-6.78-3.2,8,8,0,0,1-2.17-5.85,8.27,8.27,0,0,1,3.64-7.24Q156,55,163.24,55a32.38,32.38,0,0,1,8,.92v7.27a22.37,22.37,0,0,0-3.54-.72,30.93,30.93,0,0,0-4.09-.28,12.23,12.23,0,0,0-4.49.57q-1.27.57-1.27,1.59a1.49,1.49,0,0,0,.22.85,1.87,1.87,0,0,0,.81.6,9.7,9.7,0,0,0,1.7.53l2.81.63q5,1.08,7.31,3.31A7.85,7.85,0,0,1,173,76.17a8.57,8.57,0,0,1-1.64,5.24,10.31,10.31,0,0,1-4.72,3.41A20.19,20.19,0,0,1,159.37,86,32.34,32.34,0,0,1,149.65,84.63Z"/><path class="cls-4" d="M94,116.15q-4.64-3.86-4.64-11.54a15.81,15.81,0,0,1,2.13-8.38,13.53,13.53,0,0,1,6.3-5.34A25.16,25.16,0,0,1,108,89a34.29,34.29,0,0,1,6.89.65v7.4a33.77,33.77,0,0,0-6.09-.57q-5.09,0-7.42,2t-2.32,6q0,4.1,2.25,6.05t7.18,2a28.79,28.79,0,0,0,6.4-.79v7.42a31.49,31.49,0,0,1-7.15.86Q98.63,120,94,116.15Z"/><path class="cls-4" d="M124.58,118.2a13,13,0,0,1-5.7-5.29,18.65,18.65,0,0,1,0-16.77,13,13,0,0,1,5.69-5.29,22,22,0,0,1,17.53,0,13,13,0,0,1,5.7,5.31,18.52,18.52,0,0,1,0,16.71,13,13,0,0,1-5.71,5.31,21.95,21.95,0,0,1-17.49,0Zm14-7.48q1.78-2,1.78-6,0-4.2-1.8-6.29a6.51,6.51,0,0,0-5.21-2.09,6.65,6.65,0,0,0-5.21,2q-1.8,2-1.8,6.05,0,4.28,1.77,6.33a7.75,7.75,0,0,0,10.46,0Z"/><path class="cls-4" d="M179.63,89.45h11.29v30.16h-8.64V101.08l-6.11,14h-7.54l-6.13-13.31v17.79h-8.62V89.45h11.27l7.4,16.5Z"/></g></g></svg>